<?xml version="1.0" encoding="UTF-8" standalone="no"?>
<svg width="30px" height="30px" viewBox="0 0 30 30" version="1.1" xmlns="http://www.w3.org/2000/svg" xmlns:xlink="http://www.w3.org/1999/xlink">
    <!-- Generator: Sketch 39.1 (31720) - http://www.bohemiancoding.com/sketch -->
    <title>SALE</title>
    <desc>Created with Sketch.</desc>
    <defs>
        <path d="M29.4480383,15.6923311 C30.1839872,15.3134558 30.1839872,14.6904792 29.4480383,14.305949 C28.7149018,13.9261312 28.6380256,13.1834601 29.2755356,12.6575586 C29.9167956,12.131657 29.786481,11.5209326 28.9895936,11.3022782 C28.1898936,11.0826813 27.9620775,10.3720544 28.4795856,9.72363096 C28.9970937,9.07520752 28.7439647,8.50689452 27.9180143,8.45788578 C27.0920639,8.41076198 26.7217457,7.76610844 27.093939,7.02343739 C27.4642573,6.2788814 27.1023766,5.77559925 26.2848638,5.90189103 C25.465476,6.0281828 24.9695308,5.47400695 25.1785965,4.66819002 C25.3904749,3.86520052 24.9282801,3.44768368 24.1548305,3.7407937 C23.3823185,4.03578866 22.7794966,3.59753735 22.8188722,2.76627357 C22.8591853,1.93595227 22.3219894,1.62399273 21.6263535,2.07449623 C20.9307177,2.52405726 20.2528946,2.22058 20.11883,1.39874098 C19.9847654,0.577844441 19.3960062,0.386521825 18.8100595,0.970856908 C18.2213003,1.55707694 17.4966015,1.40062594 17.1956593,0.62685319 C16.8956546,-0.148804509 16.2797075,-0.212892873 15.8259504,0.480769419 C15.3712558,1.17725914 14.6287442,1.17725914 14.1740496,0.480769419 C13.7221675,-0.212892873 13.1034079,-0.147862033 12.8043407,0.62685319 C12.5052735,1.40062594 11.7777622,1.55613447 11.190878,0.970856908 C10.6021188,0.386521825 10.0133596,0.577844441 9.88117002,1.39874098 C9.74710542,2.22152248 9.07021985,2.52499973 8.37458398,2.07543871 C7.67707308,1.62587769 7.1408147,1.93783722 7.1792528,2.76815853 C7.21862842,3.5994223 6.61768153,4.03767362 5.84423194,3.74267865 C5.07078236,3.44862615 4.60952515,3.86708547 4.81952843,4.67007497 C5.03140674,5.47494943 4.53358646,6.02912528 3.7170112,5.90377598 C2.89856092,5.7774842 2.53386772,6.28076635 2.90699855,7.02532235 C3.27825435,7.76799339 2.90793606,8.41264693 2.08198566,8.45977073 C1.25509774,8.50877948 1.0029063,9.07709247 1.52041438,9.72551591 C2.03698495,10.3739394 1.80916889,11.0836237 1.01228144,11.3041631 C0.211643932,11.5218751 0.0841419397,12.1335419 0.724464445,12.6594435 C1.36572446,13.1853451 1.28884826,13.9280161 0.551961749,14.3078339 C-0.18398725,14.6904792 -0.18398725,15.3134558 0.551961749,15.6932736 C1.28697323,16.0759188 1.36478695,16.8167049 0.724464445,17.3444914 C0.0832044251,17.8713355 0.211643932,18.4811174 1.01228144,18.6997718 C1.80916889,18.9174838 2.03792247,19.6281106 1.52041438,20.278419 C1.00196878,20.9259 1.25509774,21.4951555 2.08198566,21.5441642 C2.90699855,21.5903455 3.27731683,22.2349991 2.90606103,22.9795551 C2.53480523,23.7203411 2.8976234,24.2245658 3.71607369,24.0992165 C4.53264895,23.9748097 5.03046923,24.5289855 4.81859092,25.3329175 C4.60858763,26.1377919 5.07078236,26.5543663 5.84423194,26.2603138 C6.61768153,25.9653188 7.21862842,26.4045126 7.17831529,27.2357764 C7.13893967,28.0651552 7.67613556,28.3761723 8.37177143,27.9256688 C9.0674073,27.4770502 9.74523039,27.78147 9.87929499,28.601424 C10.0133596,29.4204356 10.6021188,29.6145857 11.189003,29.0283656 C11.7758871,28.4440306 12.502461,28.5995391 12.8015281,29.3742543 C13.1015328,30.149912 13.719355,30.2149428 14.1721746,29.5193956 C14.6259317,28.8238484 15.3684433,28.8238484 15.8240754,29.5193956 C16.276895,30.2130579 16.8937796,30.149912 17.1937843,29.3742543 C17.493789,28.5995391 18.2194253,28.4440306 18.8081845,29.0283656 C19.3960062,29.6145857 19.9847654,29.4204356 20.116955,28.601424 C20.2519571,27.78147 20.9288426,27.4789352 21.6244785,27.9256688 C22.3210519,28.3761723 22.8573103,28.0632703 22.8169971,27.2357764 C22.7776215,26.4045126 23.3804434,25.9643764 24.1529555,26.2603138 C24.9264051,26.5543663 25.3867248,26.1377919 25.1767215,25.3329175 C24.9667182,24.5289855 25.463601,23.9766946 26.2829888,24.0992165 C27.0995641,24.2264507 27.4623822,23.7222261 27.0920639,22.9795551 C26.7198706,22.2349991 27.0901889,21.5884606 27.9161393,21.5441642 C28.7420897,21.4951555 28.9942812,20.9259 28.4777106,20.2755916 C27.959265,19.6271681 28.1880186,18.9174838 28.9877186,18.6978869 C29.784606,18.4811174 29.913983,17.8694505 29.2736605,17.3426065 C28.6380256,16.8167049 28.7149018,16.0759188 29.4480383,15.6923311 L29.4480383,15.6923311 Z" id="path-1"></path>
    </defs>
    <g id="icons" stroke="none" stroke-width="1" fill="none" fill-rule="evenodd">
        <g id="NEW_ICONS" transform="translate(-11.000000, -60.000000)">
            <g id="SALE" transform="translate(11.000000, 60.000000)">
                <mask id="mask-2" fill="white">
                    <use xlink:href="#path-1"></use>
                </mask>
                <use id="Mask" fill="#C64244" xlink:href="#path-1"></use>
                <text id="%" mask="url(#mask-2)" font-family="MuseoSansCyrl-700, Museo Sans Cyrl" font-size="14" font-weight="500" fill="#FFFFFF">
                    <tspan x="9.69146588" y="19.4912945">%</tspan>
                </text>
            </g>
        </g>
    </g>
</svg>