<?xml version="1.0" standalone="no"?>
<!DOCTYPE svg PUBLIC "-//W3C//DTD SVG 1.1//EN" "http://www.w3.org/Graphics/SVG/1.1/DTD/svg11.dtd" >
<svg>
<metadata>
Created by FontForge 20120731 at Mon Aug 22 18:13:03 2016
 By www
(c) COPYRIGHT H. BERTHOLD AG 1992 Alle Rechte vorbehalten.
</metadata>
<defs>
<font id="HelveticaBQ-Italic" horiz-adv-x="562" >
  <font-face 
    font-family="Helvetica BQ"
    font-weight="500"
    font-style="italic"
    font-stretch="normal"
    units-per-em="1000"
    panose-1="0 0 0 0 0 0 0 0 0 0"
    ascent="800"
    descent="-200"
    x-height="521"
    cap-height="706"
    bbox="-130 -262 1065 902"
    underline-thickness="50"
    underline-position="-75"
    slope="-15"
    stemh="85"
    stemv="96"
    unicode-range="U+0020-FB02"
  />
<missing-glyph horiz-adv-x="271" 
 />
    <glyph glyph-name=".notdef" horiz-adv-x="271" 
 />
    <glyph glyph-name="space" unicode=" " horiz-adv-x="271" 
 />
    <glyph glyph-name="exclam" unicode="!" horiz-adv-x="271" 
d="M208 706h113l-138 -527h-69zM79 109h109l-23 -109h-110z" />
    <glyph glyph-name="quotedbl" unicode="&#x22;" horiz-adv-x="396" 
d="M350 434h-23l-39 245s-3 21 0 32c6 25 29 38 53 38c20 0 42 -11 48 -31c3 -11 2 -17 2 -27zM162 434h-23l-39 245s-2 21 0 32c6 25 30 38 54 38c20 0 41 -11 47 -31c4 -11 3 -17 2 -27z" />
    <glyph glyph-name="numbersign" unicode="#" horiz-adv-x="667" 
d="M464 0h-79l33 229h-111l-33 -229h-81l35 229h-139v77h149l16 108h-142v77h152l31 214h80l-31 -214h110l32 214h78l-29 -214h138v-77h-149l-16 -108h140v-77h-151zM429 306l15 108h-111l-16 -108h112z" />
    <glyph glyph-name="dollar" unicode="$" horiz-adv-x="542" 
d="M349 785h59l-16 -76c30 -5 107 -21 140 -106c4 -11 13 -37 13 -69c0 -6 -1 -12 -1 -18l-90 1c1 13 1 18 1 24c-1 14 -8 53 -44 75c-8 5 -17 10 -36 14l-48 -235c18 -8 37 -16 55 -25c68 -34 115 -83 115 -163c0 -32 -6 -61 -19 -90c-17 -40 -61 -107 -170 -124
c-25 -4 -43 -4 -68 -4l-17 -85h-59l18 91c-32 6 -44 11 -59 17c-91 43 -99 133 -99 165c0 14 1 28 3 41h93c-2 -7 -8 -20 -8 -39c0 -17 6 -61 48 -88c16 -10 35 -14 40 -16l53 255c-48 21 -70 33 -90 49c-55 44 -60 110 -60 134c0 30 8 55 11 64c13 37 49 104 144 129
c28 7 49 8 77 9zM273 419l45 216c-7 0 -23 0 -41 -6c-47 -17 -81 -62 -81 -113c0 -66 61 -90 77 -97zM307 306l-50 -237c12 0 48 0 83 20c54 31 62 86 62 107c0 16 -3 30 -10 44c-18 35 -52 51 -85 66z" />
    <glyph glyph-name="percent" unicode="%" horiz-adv-x="833" 
d="M685 447c32 0 71 -15 93 -40c36 -41 35 -106 35 -118c0 -65 -21 -147 -51 -205c-12 -22 -51 -92 -135 -92c-34 0 -55 10 -67 17c-36 19 -65 58 -65 143c0 15 1 33 5 65c3 15 18 111 65 172c41 52 95 59 120 58zM590 706h69l-368 -706h-68zM685 381c-6 0 -16 -1 -29 -8
c-41 -22 -59 -77 -62 -87c-13 -39 -24 -100 -24 -141c0 -28 5 -63 30 -79c12 -7 23 -7 27 -7c36 0 65 31 87 97c12 37 26 105 26 145c0 24 -4 56 -26 71c-11 9 -24 9 -29 9zM262 714c33 -1 72 -15 93 -40c36 -42 35 -107 35 -118c0 -65 -21 -148 -51 -205
c-12 -23 -50 -93 -135 -92c-34 0 -54 10 -67 16c-36 20 -64 59 -64 144c0 15 0 33 5 64c2 15 18 112 64 172c41 53 95 60 120 59zM263 648c-6 0 -17 -1 -30 -8c-41 -22 -58 -77 -62 -87c-13 -39 -24 -101 -24 -142c1 -27 5 -63 31 -78c11 -7 22 -8 27 -8c35 0 64 32 86 98
c13 37 26 105 26 144c0 24 -4 56 -26 72c-11 8 -24 9 -28 9z" />
    <glyph glyph-name="ampersand" unicode="&#x26;" horiz-adv-x="625" 
d="M360 395l113 -185c15 26 32 59 37 125h92c-6 -29 -18 -104 -62 -175c-7 -10 -13 -19 -20 -29l81 -131h-105l-40 64c-12 -10 -24 -20 -37 -28c-64 -41 -127 -46 -156 -46c-33 0 -146 8 -200 106c-22 41 -25 80 -25 97c0 27 7 88 57 142c29 33 63 52 140 89
c-8 13 -17 25 -24 38c-8 14 -31 55 -31 105c0 93 73 156 166 156c36 0 63 -11 75 -16c74 -34 84 -105 84 -134c0 -33 -11 -58 -16 -69c-29 -59 -75 -83 -129 -109zM320 461c6 3 11 6 16 9c7 4 78 40 78 102c0 42 -29 69 -69 69c-12 0 -26 -3 -36 -8c-33 -18 -37 -54 -37 -65
c0 -37 30 -79 48 -107zM413 135l-136 219c-46 -23 -77 -40 -94 -54c-29 -24 -49 -62 -49 -102c0 -19 5 -38 14 -55c32 -61 101 -64 121 -64c55 0 100 25 114 34c11 6 20 14 30 22z" />
    <glyph glyph-name="quoteright" unicode="&#x2019;" horiz-adv-x="229" 
d="M160 706h110l-18 -85c-4 -14 -7 -28 -12 -42c-6 -20 -27 -92 -95 -120c-9 -3 -21 -7 -40 -11l14 62c1 0 14 6 21 12c26 18 35 45 45 73h-48z" />
    <glyph glyph-name="parenleft" unicode="(" horiz-adv-x="313" 
d="M336 706h75c-14 -19 -29 -38 -43 -57c-69 -92 -191 -269 -191 -560c1 -129 24 -198 42 -253h-66c-37 113 -63 195 -63 316c0 239 112 394 166 463c25 31 53 62 80 91z" />
    <glyph glyph-name="parenright" unicode=")" horiz-adv-x="313" 
d="M-3 -164h-75c14 19 29 38 43 57c69 92 190 269 190 560c0 129 -23 198 -41 253h66c37 -112 63 -195 63 -316c0 -239 -112 -394 -166 -462c-25 -32 -53 -62 -80 -92z" />
    <glyph glyph-name="asterisk" unicode="*" horiz-adv-x="375" 
d="M255 706h69l-25 -106l100 30l19 -63l-120 -27l71 -98l-57 -31l-62 96l-90 -93l-45 44l95 89l-106 42l27 58l107 -51z" />
    <glyph glyph-name="plus" unicode="+" horiz-adv-x="667" 
d="M419 0h-80v251h-249v80h249v249h80v-249h252v-80h-252v-251z" />
    <glyph glyph-name="comma" unicode="," horiz-adv-x="229" 
d="M38 111h110l-18 -85c-4 -14 -7 -29 -11 -42c-7 -20 -28 -92 -96 -120c-8 -4 -21 -7 -40 -11l14 62c1 0 14 6 21 11c26 19 35 46 45 74h-48z" />
    <glyph glyph-name="hyphen" unicode="-" horiz-adv-x="375" 
d="M64 324h289l-20 -94h-289z" />
    <glyph glyph-name="period" unicode="." horiz-adv-x="229" 
d="M36 109h110l-24 -109h-109z" />
    <glyph glyph-name="slash" unicode="/" horiz-adv-x="354" 
d="M303 706h83l-304 -706h-83z" />
    <glyph glyph-name="zero" unicode="0" 
d="M356 719c73 0 118 -30 138 -50c33 -31 67 -90 67 -195c0 -21 -1 -44 -7 -88c-3 -16 -34 -237 -139 -336c-23 -22 -72 -60 -152 -60c-59 0 -97 19 -117 32c-46 31 -87 93 -87 213c0 112 36 269 96 365c22 35 81 119 201 119zM319 628c-39 -16 -83 -55 -115 -142
c-26 -71 -47 -178 -47 -254c0 -51 8 -119 60 -147c8 -5 24 -12 48 -12c20 0 40 5 57 16c36 23 73 75 103 167c20 63 40 166 40 233c0 35 -6 83 -29 112c-11 14 -24 22 -30 24c-7 4 -24 12 -46 12c-9 0 -22 -1 -41 -9z" />
    <glyph glyph-name="one" unicode="1" 
d="M388 706h75l-149 -706h-96l111 530c-54 -16 -80 -22 -180 -22l14 71c6 0 40 2 67 8c18 4 94 25 137 82c14 17 17 28 21 37z" />
    <glyph glyph-name="two" unicode="2" 
d="M147 86h337l-24 -86h-426c3 32 10 106 60 179c42 60 94 92 155 129c27 16 53 31 79 48c9 5 46 26 73 53c42 43 48 87 48 111c0 20 -4 39 -13 57c-25 51 -78 56 -98 56c-53 -1 -97 -32 -119 -78c-5 -12 -9 -25 -15 -52l-93 1c4 24 6 33 13 56c28 86 79 120 111 135
c45 22 88 24 107 24c23 0 87 -3 138 -45c43 -35 65 -93 65 -150c-1 -35 -8 -99 -65 -162c-53 -59 -122 -91 -191 -132c-45 -26 -92 -57 -122 -102c-11 -16 -15 -24 -20 -42z" />
    <glyph glyph-name="three" unicode="3" 
d="M55 215h92c-1 -16 -2 -27 0 -43c13 -89 87 -101 117 -101c81 0 158 76 158 158c0 6 0 24 -7 41c-10 30 -37 60 -109 63c-17 0 -33 -1 -49 -3l19 84c14 -2 29 -3 44 -3c27 0 43 4 55 8c46 17 84 64 84 116c0 20 -7 37 -10 43c-24 51 -79 55 -97 55
c-51 0 -100 -29 -123 -73c-6 -11 -11 -25 -18 -52h-97c2 9 13 56 31 90c57 106 167 120 208 120c17 0 54 -2 95 -20c90 -40 102 -126 102 -161c0 -57 -27 -114 -73 -145c-17 -11 -33 -16 -53 -21c19 -7 30 -12 37 -17c39 -27 56 -77 56 -126c0 -17 -3 -52 -20 -92
c-21 -47 -87 -147 -230 -147c-21 0 -92 2 -144 45c-8 6 -24 20 -38 43c-17 29 -28 63 -30 96c-2 17 -1 26 0 42z" />
    <glyph glyph-name="four" unicode="4" 
d="M451 706h89l-97 -464h83l-16 -78h-83l-34 -164h-94l36 164h-292l19 96zM420 554l-266 -312h198z" />
    <glyph glyph-name="five" unicode="5" 
d="M204 706h353l-17 -83h-273l-54 -179c22 14 56 38 119 38c15 0 55 -2 94 -19c100 -46 107 -154 107 -189c0 -56 -19 -102 -26 -119c-61 -140 -185 -164 -243 -164c-96 0 -174 52 -195 148c-6 28 -5 49 -2 76h91c-2 -16 -3 -27 -1 -44c10 -87 84 -97 114 -97
c43 1 86 21 113 52c31 36 49 96 49 142c0 12 -1 52 -21 83c-6 9 -17 24 -43 35c-11 4 -29 11 -58 11c-20 0 -72 -6 -113 -46c-10 -10 -14 -16 -22 -26l-78 6z" />
    <glyph glyph-name="six" unicode="6" 
d="M569 526h-94c1 11 5 33 -8 59c-20 44 -64 47 -80 47c-39 0 -69 -20 -79 -28c-68 -47 -96 -125 -122 -197c10 9 20 18 30 26c17 12 64 41 125 41c40 0 72 -12 84 -18c104 -46 108 -156 108 -191c0 -77 -30 -154 -85 -206c-21 -20 -81 -70 -167 -70c-32 0 -114 8 -166 84
c-22 33 -41 81 -41 168c0 133 42 292 136 391c72 77 142 87 186 87c85 0 150 -45 169 -132c3 -18 4 -28 4 -61zM325 393c-29 1 -50 -8 -60 -13c-66 -29 -98 -95 -98 -167c0 -113 75 -141 121 -141c37 0 69 18 93 43c51 53 57 120 57 146c0 106 -71 130 -113 132z" />
    <glyph glyph-name="seven" unicode="7" 
d="M133 706h454l-25 -98c-15 -17 -31 -33 -45 -51c-94 -110 -201 -283 -256 -418c-14 -35 -25 -66 -43 -139h-104c10 43 18 73 49 151c21 51 55 132 129 242c76 113 154 195 188 231l-369 -4z" />
    <glyph glyph-name="eight" unicode="8" 
d="M449 370c6 -4 16 -10 29 -23c19 -19 40 -52 40 -114c0 -18 -2 -60 -23 -105c-20 -44 -84 -141 -224 -141c-15 0 -49 1 -86 15c-44 16 -125 60 -125 183c0 63 23 131 73 171c17 14 29 21 65 35c-22 19 -59 49 -59 120c0 15 2 48 19 86c38 82 116 121 201 121
c21 0 105 -2 158 -54c17 -18 48 -58 48 -123c-1 -55 -24 -115 -68 -148c-16 -12 -29 -17 -48 -23zM360 636c-11 0 -32 0 -57 -11c-67 -27 -77 -94 -77 -118c1 -93 102 -94 122 -94c8 0 31 0 53 8c46 18 75 66 75 116c0 65 -54 100 -116 99zM297 336c-35 0 -55 -8 -68 -14
c-51 -24 -81 -81 -81 -139c0 -71 57 -111 127 -111c38 0 62 11 76 18c71 36 78 111 78 136c0 9 0 26 -8 45c-21 47 -73 65 -124 65z" />
    <glyph glyph-name="nine" unicode="9" 
d="M60 182h93c0 -16 0 -24 1 -32c5 -43 25 -58 41 -66c14 -6 30 -10 46 -10c51 1 112 34 159 132c20 41 28 73 39 117c-7 -15 -15 -33 -44 -55c-17 -14 -56 -39 -114 -39c-27 0 -98 6 -147 69c-15 19 -28 46 -35 70c-5 20 -7 44 -7 65c0 19 1 58 17 106
c33 99 116 180 225 180c56 0 114 -21 152 -60c60 -65 59 -177 59 -198c0 -103 -30 -197 -41 -228c-42 -122 -124 -244 -270 -244c-45 0 -96 13 -129 46c-53 51 -45 130 -45 147zM336 635c-28 0 -52 -13 -60 -18c-60 -35 -89 -111 -89 -177c0 -19 0 -88 59 -117
c9 -4 27 -12 53 -12c37 0 75 18 100 44c19 19 55 69 55 144c0 32 -8 56 -12 67c-25 61 -83 70 -106 69z" />
    <glyph glyph-name="colon" unicode=":" horiz-adv-x="271" 
d="M162 499h109l-24 -111h-109zM79 111h110l-24 -111h-109z" />
    <glyph glyph-name="semicolon" unicode=";" horiz-adv-x="271" 
d="M162 499h109l-24 -111h-109zM79 111h110l-18 -85c-3 -14 -7 -29 -11 -42c-6 -20 -28 -92 -96 -120c-8 -4 -20 -7 -40 -11l14 62c1 0 14 6 21 11c26 19 35 46 45 74h-48z" />
    <glyph glyph-name="less" unicode="&#x3c;" horiz-adv-x="667" 
d="M714 -3l-667 313v86l667 313v-86l-567 -270l567 -270v-86z" />
    <glyph glyph-name="equal" unicode="=" horiz-adv-x="667" 
d="M714 162h-667v78h667v-78zM714 342h-667v79h667v-79z" />
    <glyph glyph-name="greater" unicode="&#x3e;" horiz-adv-x="667" 
d="M47 -3v86l567 270l-567 270v86l667 -313v-86z" />
    <glyph glyph-name="question" unicode="?" horiz-adv-x="521" 
d="M291 179h-93c3 13 7 27 11 41c12 43 26 79 60 109c35 32 81 50 117 79c52 40 63 89 63 116c0 19 -6 35 -8 41c-24 61 -84 67 -106 67c-23 0 -46 -6 -65 -17c-65 -35 -71 -109 -73 -129l-95 1c4 18 7 37 13 55c27 95 77 130 115 148c34 16 73 24 112 24c15 0 55 -1 93 -17
c96 -41 108 -140 108 -173c0 -30 -8 -96 -68 -152c-19 -17 -41 -32 -63 -44c-23 -14 -47 -26 -68 -43c-47 -38 -51 -84 -53 -106zM178 109h110l-24 -109h-109z" />
    <glyph glyph-name="at" unicode="@" horiz-adv-x="896" 
d="M612 433l15 62h68l-33 -150c-8 -45 -29 -126 -28 -171c0 -31 13 -44 30 -44c29 0 58 32 59 34c32 34 93 127 93 257c0 16 0 63 -20 108c-55 123 -189 129 -225 129c-29 0 -90 -4 -158 -36c-146 -70 -241 -227 -241 -387c0 -20 2 -78 26 -133c53 -119 179 -171 301 -171
c57 0 156 9 269 90c21 15 33 24 66 56l33 -41c-36 -36 -63 -55 -81 -67c-41 -29 -143 -93 -286 -93c-83 0 -173 24 -242 71c-30 20 -54 43 -75 72c-29 38 -67 104 -67 216c0 53 10 175 97 292c44 59 159 185 365 185c30 0 109 -1 181 -51c46 -31 115 -101 115 -237
c0 -25 -3 -52 -4 -59c-5 -34 -23 -149 -104 -233c-12 -12 -60 -62 -123 -62c-50 0 -70 30 -77 49c-4 11 -6 17 -6 36c-12 -15 -21 -25 -26 -31c-32 -31 -72 -53 -117 -53c-9 0 -31 1 -55 12c-37 18 -76 60 -76 150s38 191 111 247c11 9 50 38 100 37c21 0 67 -5 99 -53
c5 -7 9 -15 16 -31zM587 348c2 80 -49 106 -83 106c-31 -1 -53 -18 -61 -24c-53 -42 -78 -129 -78 -193c0 -77 44 -101 80 -101c14 0 36 4 61 23c74 57 81 171 81 189z" />
    <glyph glyph-name="A" unicode="A" horiz-adv-x="646" 
d="M368 706h114l115 -706h-97l-29 198h-273l-103 -198h-109zM398 585l-157 -306h217l-49 338c-3 -15 -4 -18 -11 -32z" />
    <glyph glyph-name="B" unicode="B" horiz-adv-x="646" 
d="M164 706h272c24 -1 117 -3 163 -79c9 -15 26 -50 26 -96c0 -43 -15 -85 -45 -117c-12 -14 -27 -26 -44 -34c-9 -5 -18 -8 -38 -11c13 -4 27 -9 39 -16c24 -16 63 -55 63 -129c0 -36 -12 -121 -94 -177c-60 -42 -121 -46 -190 -47h-298zM246 617l-45 -207h173
c9 0 18 1 27 1c16 2 67 6 99 49c7 9 22 33 22 66c0 8 -1 25 -10 44c-24 45 -76 47 -120 47h-146zM182 323l-51 -234h168c12 0 24 0 37 1c50 2 103 14 136 58c21 29 23 58 23 72c0 15 -4 58 -42 82c-33 21 -76 21 -113 21h-158z" />
    <glyph glyph-name="C" unicode="C" horiz-adv-x="688" 
d="M704 489h-102c-1 6 -4 31 -12 51c-21 57 -69 79 -89 86c-26 8 -54 9 -62 9c-33 0 -93 -4 -156 -56c-82 -68 -121 -182 -121 -286c0 -17 -1 -102 45 -160c34 -43 88 -59 141 -59c107 0 162 58 185 93c12 17 19 30 31 67l103 -1c-20 -59 -34 -97 -77 -144
c-9 -11 -31 -34 -63 -55c-33 -21 -93 -50 -186 -50c-21 0 -71 1 -124 23c-155 67 -160 240 -160 283c0 107 39 228 109 311c70 82 167 124 274 124c27 0 56 -3 82 -9c71 -19 129 -64 159 -132c10 -24 15 -45 23 -95z" />
    <glyph glyph-name="D" unicode="D" horiz-adv-x="667" 
d="M163 706h157c8 0 85 2 137 -7c34 -6 103 -20 156 -95c50 -70 50 -149 50 -177c0 -48 -7 -89 -11 -105c-9 -44 -52 -220 -205 -290c-60 -27 -113 -29 -177 -32h-254zM243 613l-109 -522h132c48 2 73 5 95 10c91 23 133 91 149 119c14 26 54 109 54 201c0 14 0 113 -63 159
c-36 27 -81 32 -169 33h-89z" />
    <glyph glyph-name="E" unicode="E" 
d="M165 706h443l-18 -90h-345l-42 -202h340l-19 -90h-340l-49 -235h381l-19 -89h-478z" />
    <glyph glyph-name="F" unicode="F" horiz-adv-x="500" 
d="M163 706h413l-18 -89h-308l-43 -210h313l-18 -89h-314l-66 -318h-105z" />
    <glyph glyph-name="G" unicode="G" horiz-adv-x="750" 
d="M703 503h-100c-7 32 -12 47 -20 61c-30 51 -91 73 -148 73c-36 0 -100 -7 -164 -69c-103 -100 -108 -248 -108 -288c0 -12 1 -51 13 -86c27 -80 94 -121 176 -121c43 0 72 10 88 16c57 23 102 73 128 128c16 33 23 67 26 78h-226l18 86h322l-82 -381h-76l8 84
c-12 -13 -25 -26 -39 -37c-28 -23 -88 -63 -183 -63c-66 0 -111 19 -135 32c-103 53 -143 162 -143 273c0 49 10 182 99 298c36 46 126 139 285 139c35 0 65 -6 77 -8c66 -15 126 -50 157 -112c13 -26 19 -48 27 -103z" />
    <glyph glyph-name="H" unicode="H" horiz-adv-x="667" 
d="M162 706h102l-59 -282h336l57 282h99l-143 -706h-100l69 339h-335l-70 -339h-100z" />
    <glyph glyph-name="I" unicode="I" horiz-adv-x="229" 
d="M165 706h103l-147 -706h-104z" />
    <glyph glyph-name="J" unicode="J" horiz-adv-x="500" 
d="M431 706h101l-109 -529c-10 -46 -16 -64 -26 -86c-25 -54 -71 -105 -194 -105c-17 0 -142 -2 -179 93c-7 20 -9 38 -9 60c0 48 13 93 16 107h101c-3 -11 -18 -54 -18 -97c0 -4 0 -20 4 -31c9 -24 35 -45 91 -45c11 0 35 0 60 14c30 18 44 43 57 107z" />
    <glyph glyph-name="K" unicode="K" horiz-adv-x="604" 
d="M165 706h99l-74 -339l350 339h137l-314 -288l217 -418h-117l-177 349l-119 -109l-50 -240h-99z" />
    <glyph glyph-name="L" unicode="L" horiz-adv-x="542" 
d="M166 706h104l-129 -618h360l-19 -88h-465z" />
    <glyph glyph-name="M" unicode="M" horiz-adv-x="792" 
d="M161 706h132l70 -555c3 -23 4 -25 3 -62c7 19 15 38 24 56c5 11 11 22 17 33l287 528h130l-145 -706h-99l87 393c6 27 11 54 18 81c7 31 15 61 23 91c-29 -58 -59 -116 -89 -174l-219 -391h-100l-60 421c-3 24 -6 49 -9 73c-2 25 -3 50 -5 75l-110 -569h-99z" />
    <glyph glyph-name="N" unicode="N" horiz-adv-x="667" 
d="M265 706l180 -438c9 -22 18 -43 26 -65c9 -24 17 -49 25 -73c3 26 6 52 10 78c3 21 6 41 10 61l90 437h95l-146 -706h-100l-206 498c-4 9 -8 17 -11 26c-6 16 -11 32 -16 48c-3 -30 -7 -61 -12 -91c-3 -21 -8 -42 -12 -63l-86 -418h-95l147 706h101z" />
    <glyph glyph-name="O" unicode="O" horiz-adv-x="729" 
d="M446 725c33 0 128 -4 200 -79c78 -81 78 -191 78 -225c0 -57 -9 -197 -121 -319c-70 -77 -155 -119 -260 -119c-20 0 -69 2 -120 23c-117 51 -164 171 -164 292c0 94 28 189 82 267c36 52 129 162 305 160zM442 640c-47 1 -89 -11 -129 -36c-105 -65 -154 -199 -154 -317
c0 -23 -1 -88 41 -145c19 -27 63 -73 147 -73c55 0 157 19 223 141c17 32 53 107 53 206c0 134 -66 196 -122 215c-18 6 -40 9 -59 9z" />
    <glyph glyph-name="P" unicode="P" horiz-adv-x="583" 
d="M165 706h212c13 0 26 -1 39 -2c29 -2 116 -10 163 -92c27 -46 28 -89 28 -108c0 -89 -52 -174 -138 -206c-32 -11 -63 -13 -98 -16h-192l-59 -282h-103zM248 618l-51 -247h154c22 1 46 2 66 8c54 16 89 66 89 124c0 17 -3 63 -44 92c-30 21 -60 22 -95 23h-119z" />
    <glyph glyph-name="Q" unicode="Q" horiz-adv-x="729" 
d="M554 56l91 -93l-65 -55l-101 103c-27 -11 -67 -28 -134 -28c-35 0 -117 3 -190 67c-44 39 -97 108 -96 241c0 131 48 264 152 351c36 31 109 83 230 83c60 0 98 -12 121 -22c70 -29 162 -105 162 -282c0 -155 -67 -256 -106 -303c-21 -25 -40 -41 -64 -62zM412 78l-62 63
l69 50l74 -74c13 10 28 22 49 50c27 36 81 125 81 248c0 23 0 103 -49 164c-9 11 -34 39 -75 52c-11 4 -31 9 -60 9c-45 0 -88 -12 -126 -36c-103 -64 -154 -198 -154 -315c0 -13 0 -49 11 -87c25 -87 91 -135 180 -135c27 0 38 3 62 11z" />
    <glyph glyph-name="R" unicode="R" horiz-adv-x="646" 
d="M162 706h250c14 0 27 0 41 -1c94 -6 135 -38 158 -78c11 -19 26 -54 26 -106c0 -38 -8 -139 -118 -175c-14 -5 -25 -8 -54 -10c16 -2 35 -5 49 -12c59 -25 54 -93 54 -107c0 -28 -2 -55 -3 -82c-2 -19 -3 -38 -3 -57c0 -45 11 -59 24 -78h-119c-2 9 -8 40 -8 70
c0 19 2 38 4 57c2 23 4 46 4 69c0 9 1 39 -13 64c-21 38 -66 41 -103 42h-171l-63 -302h-101zM245 619l-48 -230h178c56 2 123 11 151 70c11 23 12 48 12 58c0 27 -7 87 -81 99c-14 3 -19 3 -44 3h-168z" />
    <glyph glyph-name="S" unicode="S" horiz-adv-x="604" 
d="M603 518h-100c-2 17 -2 47 -33 77c-20 19 -54 39 -117 39c-103 0 -150 -52 -150 -103c0 -13 4 -25 5 -29c10 -25 29 -41 52 -53c21 -12 44 -22 67 -32c32 -14 65 -27 98 -43c9 -4 48 -21 76 -44c38 -32 59 -81 59 -133c0 -21 -4 -65 -35 -111
c-34 -50 -102 -104 -237 -104c-156 0 -229 73 -254 139c-12 33 -13 61 -12 96l96 -1c0 -13 -3 -46 17 -78c4 -6 10 -16 22 -26c23 -19 66 -39 134 -39c14 0 64 0 105 24c49 27 61 71 61 93c0 16 -6 34 -15 48c-17 26 -46 39 -102 64c-34 15 -69 29 -103 45
c-74 35 -136 83 -136 173c0 81 51 131 72 149c67 56 147 55 175 55c30 0 193 3 243 -135c9 -26 10 -44 12 -71z" />
    <glyph glyph-name="T" unicode="T" horiz-adv-x="521" 
d="M112 706h501l-24 -89h-190l-129 -617h-101l129 617h-209z" />
    <glyph glyph-name="U" unicode="U" horiz-adv-x="646" 
d="M159 706h101l-95 -453c-4 -20 -7 -38 -7 -59c0 -14 1 -44 26 -73c29 -33 79 -47 124 -47c31 0 53 6 64 10c24 10 67 34 95 95c8 18 12 31 20 67l96 460h101l-89 -425c-10 -51 -21 -103 -45 -149c-50 -97 -148 -144 -255 -144c-18 0 -53 0 -97 14c-42 13 -141 56 -141 185
c0 46 18 120 19 124z" />
    <glyph glyph-name="V" unicode="V" horiz-adv-x="583" 
d="M100 706h106l70 -474c4 -24 8 -48 10 -73c2 -23 4 -47 5 -70c15 49 21 63 42 111l237 506h114l-352 -706h-109z" />
    <glyph glyph-name="W" unicode="W" horiz-adv-x="833" 
d="M99 706h103l21 -345c3 -49 6 -98 6 -147c0 -36 -1 -73 -3 -110c9 32 19 63 29 94c9 27 19 53 29 79l178 429h108l33 -399c3 -39 5 -77 6 -116c0 -29 0 -59 -1 -88c9 34 18 68 29 101c5 18 11 35 17 52l171 450h106l-285 -706h-102l-40 446c-2 28 -3 56 -3 84
c0 31 2 62 4 93c-12 -40 -24 -80 -38 -119c-10 -29 -22 -58 -33 -86l-174 -418h-106z" />
    <glyph glyph-name="X" unicode="X" horiz-adv-x="583" 
d="M213 706l115 -250l192 250h116l-266 -344l167 -362h-106l-127 279l-213 -279h-117l288 370l-155 336h106z" />
    <glyph glyph-name="Y" unicode="Y" horiz-adv-x="583" 
d="M98 706h116l114 -347l228 347h125l-321 -450l-53 -256h-104l57 272z" />
    <glyph glyph-name="Z" unicode="Z" horiz-adv-x="583" 
d="M119 706h499l-18 -83l-418 -484c-15 -17 -30 -33 -46 -50h405l-19 -89h-522l19 94l377 440c13 15 26 30 39 43c14 15 29 28 44 41h-380z" />
    <glyph glyph-name="bracketleft" unicode="[" horiz-adv-x="417" 
d="M278 706h252l-24 -89h-151l-185 -691h151l-24 -89h-252z" />
    <glyph glyph-name="backslash" unicode="\" horiz-adv-x="354" 
d="M296 0l-223 706h80l223 -706h-80z" />
    <glyph glyph-name="bracketright" unicode="]" horiz-adv-x="417" 
d="M146 706h252l-233 -869h-251l23 89h151l185 691h-151z" />
    <glyph glyph-name="asciicircum" unicode="^" horiz-adv-x="729" 
d="M634 336h-97l-124 260l-128 -260h-96l188 370h77z" />
    <glyph glyph-name="underscore" unicode="_" horiz-adv-x="500" 
d="M557 -216h-520v79h520v-79z" />
    <glyph glyph-name="quoteleft" unicode="&#x2018;" horiz-adv-x="229" 
d="M213 456h-110l18 85c3 14 7 28 11 42c6 20 28 92 96 120c8 4 20 7 40 11l-14 -62c-1 0 -14 -6 -21 -12c-26 -18 -36 -45 -45 -73h48z" />
    <glyph glyph-name="a" unicode="a" horiz-adv-x="521" 
d="M475 373l-52 -246c-1 -5 -3 -13 -3 -26c0 -30 23 -30 33 -31h26l-15 -70h-41c-21 0 -42 1 -58 17c-3 3 -9 9 -12 19c-3 7 -3 9 -5 20c-3 -4 -13 -15 -26 -25c-51 -38 -106 -37 -127 -37c-35 0 -57 5 -71 9c-35 11 -99 46 -99 142c0 41 13 82 42 112c8 9 19 19 42 31
c54 27 106 26 222 35c4 1 21 2 33 11c20 14 26 51 26 74c0 3 1 15 -5 25c-9 17 -36 30 -80 29c-10 0 -77 2 -112 -40c-9 -11 -13 -19 -20 -42h-92c9 25 15 44 29 66c27 42 82 91 196 91c52 0 107 -10 145 -48c27 -28 29 -58 29 -73c0 -17 -2 -27 -5 -43zM362 254
c-18 -4 -37 -7 -55 -10c-17 -2 -35 -4 -53 -6c-45 -3 -63 -4 -84 -14c-43 -20 -49 -60 -49 -78c0 -29 14 -76 86 -76c33 0 74 14 98 37c5 5 9 10 11 12c21 28 31 65 46 135z" />
    <glyph glyph-name="b" unicode="b" 
d="M165 706h92l-50 -231c10 9 19 17 30 24c33 24 72 35 113 34c15 0 51 -1 87 -21c42 -22 98 -79 98 -193c0 -97 -40 -176 -57 -205c-47 -76 -117 -124 -208 -124c-19 0 -84 2 -127 51c-9 11 -16 23 -23 36l-16 -77h-87zM225 81c18 -6 31 -6 40 -6c15 0 46 2 79 27
c60 46 95 140 95 214c0 11 0 80 -44 115c-11 9 -34 23 -71 23c-29 0 -56 -9 -79 -27c-64 -49 -93 -149 -93 -224c0 -21 -1 -97 73 -122z" />
    <glyph glyph-name="c" unicode="c" horiz-adv-x="500" 
d="M512 354h-92c-1 15 -2 31 -7 44c-16 37 -57 57 -96 57c-16 0 -46 -4 -79 -26c-68 -47 -101 -146 -101 -225c0 -29 5 -50 9 -60c7 -19 34 -76 102 -76c46 0 89 24 117 60c14 18 19 32 24 41h94c-9 -25 -27 -82 -83 -130c-45 -38 -94 -54 -152 -54c-22 0 -86 2 -140 45
c-69 56 -70 141 -70 168c0 63 19 139 49 194c21 38 89 145 228 145c70 0 147 -29 179 -97c15 -33 17 -78 18 -86z" />
    <glyph glyph-name="d" unicode="d" 
d="M502 706h92l-147 -706h-86l14 68c-10 -11 -21 -22 -32 -32c-21 -18 -57 -45 -123 -45c-11 0 -41 1 -72 14c-49 20 -112 74 -112 197c0 37 6 120 60 205c66 107 155 126 206 125c42 0 85 -12 115 -42c10 -9 19 -22 33 -45zM311 447c-14 0 -45 -2 -76 -22
c-65 -44 -102 -144 -102 -221c0 -8 0 -33 9 -57c7 -22 31 -70 98 -70c32 0 86 11 129 77c31 45 50 116 50 170c0 101 -68 123 -108 123z" />
    <glyph glyph-name="e" unicode="e" horiz-adv-x="542" 
d="M510 237h-377c0 -9 0 -18 -1 -27c0 -13 -3 -81 45 -117c29 -22 63 -23 75 -23c17 0 67 4 105 42c10 10 14 17 28 38h101c-19 -36 -39 -72 -67 -99c-47 -46 -108 -65 -172 -65c-54 0 -103 13 -143 51c-32 29 -65 77 -65 173c0 39 6 155 90 246c68 74 140 82 180 82
c22 0 96 -4 148 -51c59 -53 63 -140 63 -163c0 -35 -9 -81 -10 -87zM150 309l275 1c1 11 9 71 -24 111c-20 25 -57 36 -90 36c-14 0 -40 -2 -71 -19c-66 -37 -83 -108 -90 -129z" />
    <glyph glyph-name="f" unicode="f" horiz-adv-x="292" 
d="M365 712l-18 -89c-12 0 -24 1 -36 1c-36 0 -46 -15 -52 -47l-11 -56h93l-15 -71h-93l-92 -450h-95l92 450h-80l15 71h80l17 84c4 18 8 35 17 51c32 59 104 55 119 56h59z" />
    <glyph glyph-name="g" unicode="g" 
d="M455 446l15 74h86l-101 -477c-2 -7 -14 -58 -30 -92c-58 -122 -174 -122 -217 -122c-58 0 -129 10 -164 64c-21 32 -22 68 -23 79h94c0 -7 -1 -30 16 -46c12 -12 41 -22 80 -22c16 0 70 0 108 39c30 31 41 79 50 118c-10 -7 -20 -15 -31 -21c-34 -22 -67 -34 -109 -34
c-73 0 -116 37 -134 58c-55 60 -55 140 -55 164c0 153 91 305 259 304c46 0 92 -12 125 -45c10 -10 16 -18 31 -41zM297 449c-42 0 -68 -18 -81 -28c-59 -45 -82 -129 -82 -200c0 -26 4 -43 7 -54c8 -27 33 -81 110 -81c27 0 78 6 118 63c19 26 50 89 50 174
c0 27 -4 41 -8 53c-17 48 -64 74 -114 73z" />
    <glyph glyph-name="h" unicode="h" horiz-adv-x="542" 
d="M165 706h96l-56 -250c16 14 81 77 166 77c9 0 35 -1 61 -11c25 -10 75 -38 75 -111c0 -23 -6 -48 -10 -70l-72 -341h-95l75 363c0 1 4 20 4 32c0 52 -51 57 -66 57c-24 -1 -78 -13 -120 -63c-34 -40 -45 -81 -56 -130l-54 -259h-94z" />
    <glyph glyph-name="i" unicode="i" horiz-adv-x="229" 
d="M166 706h96l-22 -105h-97zM126 521h97l-110 -521h-96z" />
    <glyph glyph-name="j" unicode="j" horiz-adv-x="229" 
d="M165 706h96l-22 -103h-97zM125 521h98l-115 -549c-7 -32 -11 -44 -18 -59c-29 -68 -82 -66 -110 -66h-71l17 86h34c11 1 17 2 21 3c25 7 29 31 33 53z" />
    <glyph glyph-name="k" unicode="k" horiz-adv-x="479" 
d="M163 706h92l-86 -407l246 222h132l-224 -187l121 -334h-103l-94 270l-103 -85l-38 -185h-89z" />
    <glyph glyph-name="l" unicode="l" horiz-adv-x="229" 
d="M166 706h95l-148 -706h-96z" />
    <glyph glyph-name="m" unicode="m" horiz-adv-x="833" 
d="M792 356l-74 -356h-95l68 336c4 26 7 43 7 54c0 22 -7 58 -62 57c-26 0 -69 -9 -109 -56c-32 -37 -43 -74 -55 -121l-57 -270h-96l69 331c3 18 8 38 8 56c0 56 -37 60 -59 60c-17 0 -47 -4 -79 -28c-62 -44 -79 -108 -95 -176l-49 -243h-97l110 521h88l-15 -72
c18 17 81 85 172 85c16 0 86 -4 112 -61c6 -14 7 -29 8 -34c4 4 19 23 35 38c38 32 94 55 144 55c29 0 50 -6 60 -10c63 -26 69 -87 69 -110c0 -20 -7 -55 -8 -56z" />
    <glyph glyph-name="n" unicode="n" horiz-adv-x="542" 
d="M425 0h-96l72 339c5 26 8 36 8 50c-1 21 -8 63 -66 63c-15 -1 -43 -5 -76 -26c-82 -52 -94 -139 -100 -169l-55 -257h-96l111 521h91l-15 -74c19 22 71 85 165 85c36 0 138 -12 138 -127c0 -21 -1 -30 -9 -67z" />
    <glyph glyph-name="o" unicode="o" 
d="M331 536c30 -1 61 -8 89 -20c112 -50 116 -169 116 -204c0 -17 -1 -52 -13 -94c-25 -90 -88 -181 -178 -215c-41 -16 -78 -17 -95 -17c-39 0 -68 8 -82 14c-53 20 -127 77 -127 213c0 34 4 114 55 192c25 39 98 136 235 131zM317 452c-38 0 -67 -17 -78 -23
c-69 -44 -103 -135 -103 -214c0 -29 5 -50 9 -60c17 -54 59 -86 115 -86c117 0 181 141 181 239c0 54 -18 87 -32 105c-31 36 -77 39 -92 39z" />
    <glyph glyph-name="p" unicode="p" 
d="M122 66l-50 -246h-93l147 701h87l-14 -64c13 13 21 22 36 34c34 27 74 42 118 42c24 0 70 -4 114 -45c30 -28 66 -77 66 -170c0 -74 -22 -153 -63 -215c-66 -101 -149 -115 -198 -115c-61 0 -98 24 -117 40c-14 12 -22 23 -33 38zM326 452c-52 -1 -91 -37 -101 -48
c-47 -48 -73 -136 -73 -202c1 -106 65 -131 111 -131c47 0 83 22 112 58c21 27 61 94 61 188c0 71 -27 104 -55 120c-7 5 -29 15 -55 15z" />
    <glyph glyph-name="q" unicode="q" 
d="M456 428l18 93h84l-148 -701h-91l53 234c-7 -7 -15 -15 -23 -22c-16 -13 -64 -46 -127 -46c-30 0 -59 7 -86 21c-97 50 -98 164 -98 193c0 106 44 228 134 291c54 38 105 43 131 43c16 0 85 -3 125 -53c15 -18 20 -32 28 -53zM307 452c-51 0 -90 -29 -119 -69
c-35 -49 -55 -122 -55 -183c0 -17 -1 -81 52 -114c20 -12 41 -18 64 -18c33 0 88 14 128 83c27 44 45 117 45 168c0 24 -3 39 -6 48c-7 23 -33 85 -109 85z" />
    <glyph glyph-name="r" unicode="r" horiz-adv-x="333" 
d="M126 521h89l-30 -114c23 44 48 84 95 106c9 4 28 12 54 12c21 0 38 -5 58 -11l-25 -94c-6 1 -30 8 -53 8c-73 0 -109 -65 -118 -83s-14 -33 -25 -72l-57 -273h-96z" />
    <glyph glyph-name="s" unicode="s" horiz-adv-x="479" 
d="M475 360h-90c-2 14 -4 28 -9 41c-18 38 -59 57 -99 57c-20 0 -38 -6 -44 -8c-39 -14 -50 -44 -50 -61c0 -5 1 -15 9 -26c12 -17 29 -23 65 -40c12 -6 25 -12 37 -18c15 -7 30 -14 45 -22c21 -10 97 -47 97 -132c0 -14 -2 -39 -18 -70c-48 -93 -164 -95 -188 -95
c-31 0 -155 4 -198 117c-13 33 -14 59 -13 93h94c-1 -18 -2 -34 3 -53c14 -56 66 -79 119 -79c34 1 69 10 90 39c4 5 13 18 13 37c0 31 -26 48 -33 53c-20 13 -77 40 -98 50c-10 4 -19 8 -28 12c-21 11 -90 45 -90 126c0 19 6 70 48 108c36 33 94 46 141 46c9 0 37 -1 65 -8
c51 -13 97 -45 118 -94c8 -19 13 -34 14 -73z" />
    <glyph glyph-name="t" unicode="t" horiz-adv-x="271" 
d="M165 661h95l-30 -140h81l-15 -71h-81l-68 -320c-3 -19 -9 -51 42 -51c14 0 22 2 46 7l-16 -77c-5 -1 -39 -9 -64 -9c-8 0 -53 1 -80 26c-8 9 -25 30 -25 64c0 17 6 43 9 60l62 300h-77l16 71h77z" />
    <glyph glyph-name="u" unicode="u" horiz-adv-x="542" 
d="M126 521h97l-70 -328c-5 -29 -8 -46 -8 -59s0 -49 36 -62c5 -2 17 -5 30 -5c30 1 73 16 118 66c40 45 53 90 66 147l50 241h92l-109 -521h-87l18 92c-3 -5 -18 -26 -33 -42c-20 -20 -67 -60 -142 -60c-51 0 -105 21 -126 71c-10 23 -10 51 -10 58c0 32 5 53 11 84z" />
    <glyph glyph-name="v" unicode="v" horiz-adv-x="458" 
d="M50 521h98l33 -307c3 -25 5 -49 7 -73c1 -20 1 -41 2 -61c11 34 16 55 49 119l164 322h106l-284 -521h-101z" />
    <glyph glyph-name="w" unicode="w" horiz-adv-x="708" 
d="M149 521l25 -307c4 -42 6 -50 1 -120c11 43 16 65 48 141l128 286h100l18 -307c2 -21 3 -42 2 -63c-1 -19 -3 -38 -5 -57c14 50 17 59 39 109l149 318h105l-266 -521h-92l-19 319c-1 22 -2 43 -2 64c0 15 1 29 2 44c-15 -63 -22 -79 -50 -141l-128 -286h-91l-63 521h99z
" />
    <glyph glyph-name="x" unicode="x" horiz-adv-x="479" 
d="M64 521h111l60 -130c5 -10 10 -21 14 -32c4 -8 7 -17 10 -25c8 15 18 30 29 44l109 143h118l-213 -261c6 -9 12 -19 17 -28s10 -18 14 -28l102 -204h-109l-71 156c-3 5 -5 10 -8 15c-3 9 -7 17 -10 26l-146 -197h-120l222 271c-9 15 -18 30 -27 46z" />
    <glyph glyph-name="y" unicode="y" horiz-adv-x="458" 
d="M61 521h100l44 -291c3 -24 6 -48 8 -72c1 -22 2 -43 2 -64c11 26 21 52 32 78c8 16 15 32 23 49l147 300h105l-309 -598c-14 -27 -22 -40 -31 -51c-31 -41 -67 -46 -114 -49h-71l18 88h43c15 1 22 2 29 4c24 7 32 22 43 42l22 46z" />
    <glyph glyph-name="z" unicode="z" horiz-adv-x="458" 
d="M84 521h393l-12 -58l-333 -381h286l-17 -82h-407l16 74l291 332c10 12 20 22 30 33h-264z" />
    <glyph glyph-name="braceleft" unicode="{" horiz-adv-x="354" 
d="M187 414v168c1 21 -3 123 87 154c25 10 48 9 99 12l-1 -6c-9 -3 -19 -5 -28 -9c-44 -15 -58 -46 -63 -64c-9 -25 -8 -44 -8 -94v-98c-1 -92 2 -142 -22 -182c-20 -34 -53 -42 -65 -46c16 -6 53 -17 72 -60c17 -36 15 -77 15 -157v-110c1 -60 2 -84 18 -113
c19 -34 46 -42 82 -53l-1 -6c-13 1 -26 1 -39 2c-19 1 -95 1 -128 68c-19 39 -17 84 -18 125v129c0 15 1 29 0 43c0 12 4 89 -50 121c-6 3 -9 5 -21 9v6c23 5 33 13 41 21c33 33 29 100 30 140z" />
    <glyph glyph-name="bar" unicode="|" horiz-adv-x="229" 
d="M202 -250h-80v998h80v-998z" />
    <glyph glyph-name="braceright" unicode="}" horiz-adv-x="354" 
d="M262 83v-125c0 -18 0 -36 -1 -53c-1 -19 -1 -102 -71 -138c-31 -15 -53 -14 -114 -17v6c21 5 78 15 94 81c5 21 5 42 6 86v98c1 91 -2 142 21 182c20 33 53 42 66 46c-9 3 -33 10 -53 29c-37 39 -34 89 -35 187v110c0 40 2 83 -21 119c-20 31 -45 38 -78 48v6
c11 -1 23 -2 34 -2c14 -1 65 0 103 -31c50 -39 47 -108 48 -163v-129c0 -22 -1 -45 1 -67c2 -36 13 -71 44 -93c8 -5 12 -7 26 -12v-6c-8 -2 -23 -6 -39 -20c-35 -33 -31 -102 -31 -142z" />
    <glyph glyph-name="asciitilde" unicode="~" horiz-adv-x="729" 
d="M416 246l-30 15c-5 2 -47 24 -80 24c-4 0 -17 -1 -28 -5c-28 -10 -50 -41 -67 -62l-40 72c12 17 55 84 133 84c31 -1 56 -8 111 -34l33 -15c22 -10 44 -21 70 -21c42 0 73 34 96 62l38 -72c-11 -12 -62 -79 -137 -79c-29 1 -50 8 -99 31z" />
    <glyph glyph-name="exclamdown" unicode="&#xa1;" horiz-adv-x="271" 
d="M125 0h-113l138 527h69zM254 597h-109l23 109h110z" />
    <glyph glyph-name="sterling" unicode="&#xa3;" horiz-adv-x="542" 
d="M560 479h-98c7 22 10 33 10 56c0 4 -1 21 -5 35c-19 59 -82 64 -99 63c-57 0 -142 -37 -142 -167c0 -18 2 -43 8 -84h186l-17 -59l-160 -1c1 -15 2 -30 1 -46c-7 -105 -79 -160 -105 -183c38 13 59 19 100 19c17 0 45 0 84 -10c35 -9 49 -17 86 -17c58 0 83 19 104 34
l-34 -117c-12 -3 -45 -12 -81 -12c-25 0 -50 2 -98 18c-13 5 -59 22 -106 22c-71 0 -114 -32 -136 -46l-16 103c37 27 60 45 82 86c33 64 25 125 23 150h-88l15 59h63c-11 48 -12 62 -12 89c0 15 1 58 17 99c34 90 124 151 224 151c14 0 43 -1 77 -13
c36 -12 125 -55 125 -168c0 -28 -6 -52 -8 -61z" />
    <glyph glyph-name="fraction" unicode="&#x2044;" horiz-adv-x="125" 
d="M233 706h50l-364 -706h-49z" />
    <glyph glyph-name="section" unicode="&#xa7;" horiz-adv-x="542" 
d="M519 530h-96c0 13 6 71 -43 91c-16 7 -33 7 -39 7c-62 0 -81 -44 -81 -68c0 -32 26 -58 46 -77l131 -125c16 -16 71 -64 71 -142c0 -53 -27 -106 -70 -136c-15 -10 -32 -17 -49 -25c6 -12 19 -34 19 -69c0 -45 -22 -93 -57 -122c-19 -16 -60 -41 -128 -41
c-52 0 -104 15 -139 50c-25 26 -35 58 -38 69c-7 25 -7 50 -7 75h101c0 -10 1 -19 2 -28c6 -40 27 -55 42 -62c13 -7 28 -10 45 -10c11 0 42 2 62 26c15 17 17 37 17 46c0 34 -18 54 -62 96l-122 119c-14 15 -67 64 -67 136c0 11 1 32 12 59c22 53 60 74 109 96
c-11 25 -15 38 -15 66c0 102 81 157 180 157c35 0 144 -6 170 -116c5 -20 6 -34 6 -72zM195 265l154 -148c9 5 20 10 28 16c9 8 38 35 38 76c0 45 -37 76 -45 83l-149 142c-10 -5 -20 -10 -29 -16c-9 -7 -40 -34 -40 -75c1 -9 2 -19 6 -28c8 -22 21 -35 37 -50z" />
    <glyph glyph-name="currency" unicode="&#xa4;" horiz-adv-x="667" 
d="M595 183l77 -76l-62 -60l-75 76c-26 -18 -74 -50 -155 -50c-82 0 -129 33 -155 51l-76 -76l-60 61l76 75c-18 26 -51 75 -51 157c1 43 11 87 32 124c6 10 13 20 19 29l-75 76l60 60l75 -75c25 17 75 51 156 51c20 0 72 -3 121 -29c14 -8 32 -21 34 -22l75 75l61 -60
l-76 -76c19 -26 50 -73 50 -155c0 -20 -1 -62 -23 -109c-9 -20 -15 -28 -28 -47zM566 340c0 22 -2 69 -38 116c-19 24 -65 72 -147 71c-12 0 -39 -1 -69 -12c-75 -28 -118 -97 -118 -176c0 -106 83 -187 188 -187c37 0 72 9 102 30c29 19 82 67 82 158z" />
    <glyph glyph-name="quotesingle" unicode="'" horiz-adv-x="208" 
d="M162 434h-23l-39 245s-2 21 0 32c6 25 30 38 54 38c20 0 41 -11 47 -31c4 -11 3 -17 2 -27z" />
    <glyph glyph-name="quotedblleft" unicode="&#x201c;" horiz-adv-x="396" 
d="M212 456h-110l18 85c4 14 7 28 12 42c6 20 27 92 96 120c8 4 20 7 39 11l-14 -62c-1 0 -14 -6 -21 -12c-26 -18 -35 -45 -45 -73h48zM379 456h-110l18 85c4 14 7 28 11 42c7 20 28 92 96 120c9 4 21 7 40 11l-14 -62c-1 0 -14 -6 -21 -12c-26 -18 -35 -45 -45 -73h48z
" />
    <glyph glyph-name="guillemotleft" unicode="&#xab;" horiz-adv-x="458" 
d="M453 437l-22 -102l-120 -70l88 -87l-20 -88l-133 146l16 81zM253 437l-22 -102l-120 -70l87 -87l-19 -88l-133 146l16 81z" />
    <glyph glyph-name="fi" unicode="&#xfb01;" horiz-adv-x="521" 
d="M365 712l-18 -89c-12 0 -24 1 -36 1c-36 0 -46 -15 -52 -47l-11 -56h93l-15 -71h-93l-92 -450h-95l92 450h-80l15 71h80l17 84c4 18 8 35 17 51c32 59 104 55 119 56h59zM458 706h96l-22 -105h-97zM418 521h97l-110 -521h-96z" />
    <glyph glyph-name="fl" unicode="&#xfb02;" horiz-adv-x="521" 
d="M365 712l-18 -89c-12 0 -24 1 -36 1c-36 0 -46 -15 -52 -47l-11 -56h93l-15 -71h-93l-92 -450h-95l92 450h-80l15 71h80l17 84c4 18 8 35 17 51c32 59 104 55 119 56h59zM458 706h95l-148 -706h-96z" />
    <glyph glyph-name="endash" unicode="&#x2013;" 
d="M64 324h475l-20 -94h-475z" />
    <glyph glyph-name="dagger" unicode="&#x2020;" horiz-adv-x="500" 
d="M303 706h96l-41 -197h158l-19 -90h-158l-109 -518h-96l109 518h-161l19 90h160z" />
    <glyph glyph-name="periodcentered" unicode="&#xb7;" horiz-adv-x="187" 
d="M138 224c-38 1 -64 30 -64 68c0 16 4 26 7 31c5 10 25 37 60 37c12 0 20 -3 24 -5c26 -11 43 -34 43 -63c0 -10 -2 -17 -5 -25c-6 -15 -23 -45 -65 -43z" />
    <glyph glyph-name="paragraph" unicode="&#xb6;" horiz-adv-x="667" 
d="M586 706v-54h-34v-819h-58v819h-144v-819h-58v486c-11 2 -32 4 -58 17c-68 31 -99 99 -99 171c0 88 48 162 134 189c29 8 57 10 87 10h230z" />
    <glyph glyph-name="bullet" unicode="&#x2022;" horiz-adv-x="333" 
d="M344 353c0 -27 -7 -45 -11 -55c-11 -24 -43 -75 -117 -75c-72 0 -132 55 -132 130c0 9 0 26 9 48c21 51 70 82 123 82c73 0 128 -57 128 -130z" />
    <glyph glyph-name="quotesinglbase" unicode="&#x201a;" horiz-adv-x="229" 
d="M38 111h110l-18 -85c-4 -14 -7 -29 -11 -42c-7 -20 -28 -92 -96 -120c-8 -4 -21 -7 -40 -11l14 62c1 0 14 6 21 11c26 19 35 46 45 74h-48z" />
    <glyph glyph-name="quotedblbase" unicode="&#x201e;" horiz-adv-x="396" 
d="M205 111h110l-18 -85c-4 -14 -7 -29 -11 -42c-7 -20 -28 -92 -96 -120c-9 -4 -21 -7 -40 -11l14 62c1 0 14 6 21 11c26 19 35 46 45 74h-48zM38 111h110l-18 -85c-4 -14 -7 -29 -11 -42c-7 -20 -28 -92 -96 -120c-8 -4 -21 -7 -40 -11l14 62c1 0 14 6 21 11
c26 19 35 46 45 74h-48z" />
    <glyph glyph-name="quotedblright" unicode="&#x201d;" horiz-adv-x="396" 
d="M329 706h109l-18 -85c-3 -14 -7 -28 -11 -42c-6 -20 -28 -92 -96 -120c-8 -3 -20 -7 -40 -11l14 62c2 0 15 6 22 12c25 18 35 45 44 73h-47zM162 706h109l-18 -85c-3 -14 -7 -28 -11 -42c-6 -20 -27 -92 -96 -120c-8 -3 -20 -7 -39 -11l13 62c2 0 15 6 22 12
c25 18 35 45 44 73h-47z" />
    <glyph glyph-name="guillemotright" unicode="&#xbb;" horiz-adv-x="458" 
d="M23 116l22 102l120 70l-87 87l19 88l133 -146l-16 -81zM223 116l22 102l121 70l-88 87l19 88l133 -146l-16 -81z" />
    <glyph glyph-name="ellipsis" unicode="&#x2026;" horiz-adv-x="1000" 
d="M937 51c0 -31 -24 -57 -56 -57c-31 0 -57 25 -57 57c0 31 26 56 58 56c31 0 55 -25 55 -56zM604 51c0 -31 -24 -57 -57 -57c-31 0 -56 25 -56 57c0 4 0 13 4 22c9 21 31 34 53 34c31 0 56 -25 56 -56zM270 51c0 -31 -24 -57 -56 -57s-57 25 -57 57c0 3 1 13 4 21
c9 21 30 35 54 35c31 0 55 -25 55 -56z" />
    <glyph glyph-name="questiondown" unicode="&#xbf;" horiz-adv-x="521" 
d="M273 528l93 -1c-3 -13 -7 -27 -11 -40c-12 -44 -26 -79 -60 -110c-35 -31 -81 -49 -118 -78c-51 -41 -62 -89 -62 -116c0 -20 6 -36 8 -41c24 -62 84 -68 106 -68c23 0 46 6 65 17c65 35 70 109 72 129h96c-4 -19 -7 -37 -13 -56c-27 -94 -77 -129 -115 -148
c-34 -16 -73 -24 -112 -24c-15 0 -55 1 -93 18c-97 40 -108 139 -108 173c0 55 24 108 63 147c15 14 33 29 70 50c25 15 44 23 66 41c47 39 51 85 53 107zM386 597h-110l24 109h109z" />
    <glyph glyph-name="grave" unicode="`" horiz-adv-x="271" 
d="M115 706l89 -139h-86l-144 139h141z" />
    <glyph glyph-name="acute" unicode="&#xb4;" horiz-adv-x="271" 
d="M152 706h142l-142 -139h-88z" />
    <glyph glyph-name="circumflex" unicode="&#x2c6;" horiz-adv-x="271" 
d="M202 706l65 -140h-83l-42 97l-79 -97h-101l127 140h113z" />
    <glyph glyph-name="tilde" unicode="&#x2dc;" horiz-adv-x="271" 
d="M258 696l47 -17c-4 -10 -8 -19 -12 -29c-6 -15 -29 -70 -91 -70c-29 0 -51 12 -104 30c-13 4 -31 11 -45 11c-26 0 -37 -20 -48 -41l-43 20c4 12 25 93 98 93c21 0 50 -6 93 -22c28 -11 41 -18 56 -18c26 1 38 22 49 43z" />
    <glyph glyph-name="dieresis" unicode="&#xa8;" horiz-adv-x="271" 
d="M7 686h94l-22 -105h-95zM187 686h94l-22 -105h-95z" />
    <glyph glyph-name="cedilla" unicode="&#xb8;" horiz-adv-x="271" 
d="M-9 -42h88l-14 -69c-3 -14 -5 -24 -11 -38c-15 -37 -42 -48 -80 -48h-15l8 36c3 0 14 -1 23 1c20 5 24 21 27 38h-44z" />
    <glyph glyph-name="caron" unicode="&#x2c7;" horiz-adv-x="271" 
d="M67 566l-64 140h82l42 -97l80 97h101l-128 -140h-113z" />
    <glyph glyph-name="emdash" unicode="&#x2014;" horiz-adv-x="667" 
d="M714 253h-667v79h667v-79z" />
    <glyph glyph-name="AE" unicode="&#xc6;" horiz-adv-x="917" 
d="M386 706h579l-18 -89h-326l-42 -203h318l-19 -90h-318l-48 -233h360l-19 -91h-458l42 200h-231l-109 -200h-110zM442 620l-185 -331h199l68 331h-82z" />
    <glyph glyph-name="Oslash" unicode="&#xd8;" horiz-adv-x="729" 
d="M703 739l35 -32l-74 -84c4 -4 20 -27 29 -48c22 -45 30 -99 30 -149c0 -56 -10 -116 -30 -169c-55 -152 -187 -274 -356 -273c-101 0 -154 42 -186 68l-76 -84l-35 33l78 88l-18 27c-18 31 -42 89 -42 176c0 29 2 87 26 157c53 155 185 276 355 275c24 0 93 -2 155 -38
c12 -7 17 -11 37 -26zM182 160l386 430c-7 7 -14 13 -22 19c-42 30 -94 31 -110 31c-60 0 -101 -21 -120 -32c-109 -64 -164 -204 -164 -324c0 -66 15 -96 30 -124zM599 551l-387 -432c12 -10 20 -16 25 -20c17 -12 53 -31 106 -31c25 0 76 4 130 39c104 68 156 197 156 317
c0 66 -17 100 -30 127z" />
    <glyph glyph-name="OE" unicode="&#x152;" horiz-adv-x="1021" 
d="M611 629l16 77h438l-17 -88h-345l-43 -204h341l-18 -89h-340l-49 -234h381l-19 -91h-474l14 76c-9 -10 -17 -20 -27 -29c-26 -24 -76 -60 -163 -60c-33 0 -105 4 -169 70c-79 82 -77 188 -77 223c0 143 49 293 170 380c79 57 152 62 189 62c23 0 95 -1 151 -47
c12 -10 22 -21 41 -46zM523 220l61 285c1 6 2 11 2 17c-1 9 -9 31 -25 50c-18 21 -62 60 -135 60c-61 0 -108 -29 -125 -40c-94 -65 -142 -197 -142 -307c0 -15 0 -100 45 -155c40 -51 105 -55 125 -55c30 0 81 7 135 55c8 7 29 25 43 50c10 16 15 35 16 40z" />
    <glyph glyph-name="ae" unicode="&#xe6;" horiz-adv-x="854" 
d="M821 234h-366c0 -13 -1 -25 -1 -37c2 -43 15 -89 54 -113c18 -11 39 -17 61 -17c15 0 46 3 78 26c23 17 33 32 49 55l100 -1c-18 -34 -30 -55 -41 -69c-46 -61 -115 -92 -191 -92c-72 0 -115 28 -136 50c-17 17 -25 34 -36 55c-26 -35 -72 -106 -188 -106
c-20 0 -80 2 -129 43c-21 18 -50 50 -50 116c0 6 0 13 1 19c7 77 59 125 132 142c34 8 71 10 143 14c39 3 80 1 95 46c6 17 6 32 6 37c0 4 0 13 -3 22c-12 34 -55 37 -84 37c-11 0 -21 0 -32 -1c-52 -3 -77 -22 -92 -40c-9 -10 -13 -17 -20 -42l-91 1c12 39 23 67 53 96
c29 29 83 63 177 63c46 0 95 -8 133 -35c14 -10 22 -19 33 -32c22 20 72 66 156 66c45 0 79 -15 94 -23c98 -51 105 -159 105 -191c0 -36 -8 -81 -10 -89zM473 306l263 1c2 48 0 100 -45 131c-25 18 -49 19 -62 19c-23 0 -45 -7 -66 -19c-66 -39 -83 -109 -90 -132zM373 253
c-19 -4 -38 -8 -58 -10c-18 -3 -37 -4 -56 -6c-47 -3 -72 -5 -92 -15c-41 -20 -47 -62 -47 -77c0 -7 1 -19 8 -34c21 -43 75 -44 86 -44c40 0 86 17 112 48c25 29 33 65 47 138z" />
    <glyph glyph-name="dotlessi" unicode="&#x131;" horiz-adv-x="229" 
d="M126 521h97l-110 -521h-96z" />
    <glyph glyph-name="oslash" unicode="&#xf8;" 
d="M524 550l31 -28l-61 -70c18 -28 42 -64 42 -139c0 -74 -24 -150 -67 -210c-73 -103 -166 -117 -216 -117c-18 0 -68 3 -115 29c-11 7 -22 15 -25 18l-57 -63l-31 28l59 66c-18 29 -43 70 -43 148c0 135 67 219 105 253c22 20 87 70 177 70c16 0 70 -2 115 -30
c9 -5 18 -12 26 -19zM142 128l266 295c-14 13 -38 31 -84 31c-55 0 -103 -25 -138 -66c-57 -68 -60 -158 -60 -184c0 -41 7 -58 16 -76zM433 386l-263 -291c14 -11 38 -29 83 -29c31 0 86 7 135 67c39 48 62 118 61 179c0 39 -8 59 -16 74z" />
    <glyph glyph-name="oe" unicode="&#x153;" horiz-adv-x="875" 
d="M842 236h-346c-1 -7 -1 -14 -2 -21c0 -13 -4 -89 46 -127c24 -18 48 -20 60 -20c46 0 81 33 90 42c14 14 23 31 27 37h102c-15 -29 -28 -54 -48 -78c-43 -53 -107 -83 -176 -83c-51 0 -107 19 -141 59c-13 15 -18 26 -27 43c-3 -5 -19 -27 -36 -43
c-39 -38 -95 -60 -150 -60c-15 0 -48 2 -85 18c-114 51 -117 178 -117 211c0 21 1 61 18 113c37 115 130 209 256 209c19 0 89 -2 134 -51c11 -12 16 -21 31 -48c10 13 22 28 33 39c55 54 119 60 147 60c21 0 88 -5 136 -54c39 -40 57 -102 57 -159c0 -35 -8 -81 -9 -87z
M307 457c-15 -1 -40 -4 -71 -25c-67 -45 -103 -134 -103 -214c0 -13 0 -95 57 -132c23 -14 47 -16 57 -16c60 0 100 46 110 59c19 23 65 94 65 185c0 111 -65 143 -115 143zM513 310h243c1 11 7 53 -12 92c-22 47 -65 53 -84 53c-18 0 -54 -6 -89 -38
c-33 -31 -45 -66 -58 -107z" />
    <glyph glyph-name="germandbls" unicode="&#xdf;" horiz-adv-x="521" 
d="M164 -3l18 88c10 -1 21 -4 42 -4c25 0 107 7 149 82c17 30 19 60 19 72c0 36 -13 101 -104 111c-17 2 -23 1 -51 -1l17 82c14 -2 28 -3 42 -3c10 0 30 0 55 9c46 17 81 60 80 113c0 35 -14 55 -24 64c-17 16 -44 22 -69 22c-24 0 -45 -6 -64 -21
c-37 -28 -49 -71 -60 -112l-104 -499h-91l112 540c6 22 13 46 23 66c36 72 105 108 187 107c31 0 63 -5 90 -16c84 -35 94 -112 94 -145c0 -55 -28 -112 -70 -144c-14 -11 -29 -17 -45 -24c23 -13 31 -19 40 -29c27 -27 38 -69 38 -110c0 -16 -2 -50 -17 -87
c-22 -56 -90 -164 -251 -164c-19 0 -37 1 -56 3z" />
    <glyph glyph-name="Grave" unicode="&#xf6ce;" horiz-adv-x="271" 
d="M162 898l88 -140h-85l-144 140h141z" />
    <glyph glyph-name="Acute" unicode="&#xf6c9;" horiz-adv-x="271" 
d="M199 898h141l-145 -140h-85z" />
    <glyph glyph-name="Circumflex" horiz-adv-x="271" 
d="M250 898l65 -141h-82l-42 98l-80 -98h-101l127 141h113z" />
    <glyph glyph-name="Tilde" horiz-adv-x="271" 
d="M304 881l47 -17c-4 -9 -8 -19 -12 -28c-6 -15 -29 -70 -91 -70c-29 0 -51 11 -104 29c-12 5 -31 11 -45 11c-26 0 -37 -19 -48 -40l-43 19c4 12 25 94 99 93c20 0 49 -6 92 -22c28 -10 41 -17 56 -17c26 0 39 22 49 42z" />
    <glyph glyph-name="Dieresis" unicode="&#xf6cb;" horiz-adv-x="271" 
d="M330 877l-23 -104h-96l22 104h97zM149 877l-22 -104h-97l23 104h96z" />
    <glyph glyph-name="Caron" unicode="&#xf6ca;" horiz-adv-x="271" 
d="M114 757l-64 141h82l42 -98l80 98h101l-127 -141h-114z" />
    <glyph glyph-name="Adieresis" unicode="&#xc4;" horiz-adv-x="646" 
d="M602 877l-23 -104h-96l22 104h97zM421 877l-22 -104h-96l22 104h96zM368 706h114l115 -706h-97l-29 198h-273l-103 -198h-109zM398 585l-157 -306h217l-49 338c-3 -15 -4 -18 -11 -32z" />
    <glyph glyph-name="Aring" unicode="&#xc5;" horiz-adv-x="646" 
d="M368 706h114l115 -706h-97l-29 198h-273l-103 -198h-109zM398 585l-157 -306h217l-49 338c-3 -15 -4 -18 -11 -32zM383 749c-16 15 -27 40 -26 62c0 19 7 35 9 40c16 32 50 51 87 51c7 0 23 -1 39 -8c46 -20 53 -64 53 -80c0 -19 -7 -35 -9 -40c-23 -45 -70 -51 -87 -51
c-24 1 -48 9 -66 26zM416 776c8 -8 22 -13 34 -12c29 0 49 21 49 50c-1 28 -19 47 -47 47c-29 0 -49 -22 -49 -51c0 -13 4 -25 13 -34z" />
    <glyph glyph-name="Odieresis" unicode="&#xd6;" horiz-adv-x="729" 
d="M637 877l-23 -104h-96l22 104h97zM456 877l-22 -104h-97l23 104h96zM446 725c33 0 128 -4 200 -79c78 -81 78 -191 78 -225c0 -57 -9 -197 -121 -319c-70 -77 -155 -119 -260 -119c-20 0 -69 2 -120 23c-117 51 -164 171 -164 292c0 94 28 189 82 267
c36 52 129 162 305 160zM442 640c-47 1 -89 -11 -129 -36c-105 -65 -154 -199 -154 -317c0 -23 -1 -88 41 -145c19 -27 63 -73 147 -73c55 0 157 19 223 141c17 32 53 107 53 206c0 134 -66 196 -122 215c-18 6 -40 9 -59 9z" />
    <glyph glyph-name="Udieresis" unicode="&#xdc;" horiz-adv-x="646" 
d="M594 877l-23 -104h-96l22 104h97zM413 877l-22 -104h-97l23 104h96zM159 706h101l-95 -453c-4 -20 -7 -38 -7 -59c0 -14 1 -44 26 -73c29 -33 79 -47 124 -47c31 0 53 6 64 10c24 10 67 34 95 95c8 18 12 31 20 67l96 460h101l-89 -425c-10 -51 -21 -103 -45 -149
c-50 -97 -148 -144 -255 -144c-18 0 -53 0 -97 14c-42 13 -141 56 -141 185c0 46 18 120 19 124z" />
    <glyph glyph-name="adieresis" unicode="&#xe4;" horiz-adv-x="521" 
d="M200 686h94l-22 -105h-95zM380 686h94l-22 -105h-95zM475 373l-52 -246c-1 -5 -3 -13 -3 -26c0 -30 23 -30 33 -31h26l-15 -70h-41c-21 0 -42 1 -58 17c-3 3 -9 9 -12 19c-3 7 -3 9 -5 20c-3 -4 -13 -15 -26 -25c-51 -38 -106 -37 -127 -37c-35 0 -57 5 -71 9
c-35 11 -99 46 -99 142c0 41 13 82 42 112c8 9 19 19 42 31c54 27 106 26 222 35c4 1 21 2 33 11c20 14 26 51 26 74c0 3 1 15 -5 25c-9 17 -36 30 -80 29c-10 0 -77 2 -112 -40c-9 -11 -13 -19 -20 -42h-92c9 25 15 44 29 66c27 42 82 91 196 91c52 0 107 -10 145 -48
c27 -28 29 -58 29 -73c0 -17 -2 -27 -5 -43zM362 254c-18 -4 -37 -7 -55 -10c-17 -2 -35 -4 -53 -6c-45 -3 -63 -4 -84 -14c-43 -20 -49 -60 -49 -78c0 -29 14 -76 86 -76c33 0 74 14 98 37c5 5 9 10 11 12c21 28 31 65 46 135z" />
    <glyph glyph-name="aring" unicode="&#xe5;" horiz-adv-x="521" 
d="M475 373l-52 -246c-1 -5 -3 -13 -3 -26c0 -30 23 -30 33 -31h26l-15 -70h-41c-21 0 -42 1 -58 17c-3 3 -9 9 -12 19c-3 7 -3 9 -5 20c-3 -4 -13 -15 -26 -25c-51 -38 -106 -37 -127 -37c-35 0 -57 5 -71 9c-35 11 -99 46 -99 142c0 41 13 82 42 112c8 9 19 19 42 31
c54 27 106 26 222 35c4 1 21 2 33 11c20 14 26 51 26 74c0 3 1 15 -5 25c-9 17 -36 30 -80 29c-10 0 -77 2 -112 -40c-9 -11 -13 -19 -20 -42h-92c9 25 15 44 29 66c27 42 82 91 196 91c52 0 107 -10 145 -48c27 -28 29 -58 29 -73c0 -17 -2 -27 -5 -43zM362 254
c-18 -4 -37 -7 -55 -10c-17 -2 -35 -4 -53 -6c-45 -3 -63 -4 -84 -14c-43 -20 -49 -60 -49 -78c0 -29 14 -76 86 -76c33 0 74 14 98 37c5 5 9 10 11 12c21 28 31 65 46 135zM264 582c-16 15 -27 40 -26 62c0 19 7 35 9 39c16 33 50 51 87 51c7 0 22 0 39 -8
c46 -19 53 -63 53 -80c0 -18 -7 -34 -10 -39c-22 -46 -70 -51 -86 -51c-25 0 -48 8 -66 26zM297 609c8 -8 22 -13 34 -13c29 0 48 22 48 51c0 27 -18 47 -46 47c-29 0 -49 -22 -49 -51c0 -13 4 -25 13 -34z" />
    <glyph glyph-name="odieresis" unicode="&#xf6;" 
d="M236 686h95l-22 -105h-95zM416 686h95l-22 -105h-95zM331 536c30 -1 61 -8 89 -20c112 -50 116 -169 116 -204c0 -17 -1 -52 -13 -94c-25 -90 -88 -181 -178 -215c-41 -16 -78 -17 -95 -17c-39 0 -68 8 -82 14c-53 20 -127 77 -127 213c0 34 4 114 55 192
c25 39 98 136 235 131zM317 452c-38 0 -67 -17 -78 -23c-69 -44 -103 -135 -103 -214c0 -29 5 -50 9 -60c17 -54 59 -86 115 -86c117 0 181 141 181 239c0 54 -18 87 -32 105c-31 36 -77 39 -92 39z" />
    <glyph glyph-name="udieresis" unicode="&#xfc;" horiz-adv-x="542" 
d="M126 521h97l-70 -328c-5 -29 -8 -46 -8 -59s0 -49 36 -62c5 -2 17 -5 30 -5c30 1 73 16 118 66c40 45 53 90 66 147l50 241h92l-109 -521h-87l18 92c-3 -5 -18 -26 -33 -42c-20 -20 -67 -60 -142 -60c-51 0 -105 21 -126 71c-10 23 -10 51 -10 58c0 32 5 53 11 84z
M232 686h94l-22 -105h-95zM412 686h95l-23 -105h-95z" />
    <glyph glyph-name="degree" unicode="&#xb0;" horiz-adv-x="354" 
d="M225 755c89 0 161 -72 161 -161c0 -13 -2 -39 -15 -69c-27 -56 -85 -93 -147 -93c-89 1 -161 73 -161 162s72 161 162 161zM224 675c-44 0 -79 -36 -79 -79c1 -44 36 -79 80 -79s78 35 78 79c0 43 -35 79 -79 79z" />
    <glyph glyph-name="registered" unicode="&#xae;" horiz-adv-x="833" 
d="M643 131l-93 1c-18 39 -20 77 -26 118c-7 41 -14 58 -35 70c-19 11 -30 12 -68 13h-28v-202h-80v449h146c54 0 116 3 153 -45c8 -10 24 -35 24 -70c0 -22 -7 -70 -61 -96c-7 -3 -16 -7 -32 -11c14 -6 22 -10 27 -14c34 -26 36 -70 42 -107c9 -55 18 -82 31 -106zM394 396
h66c9 0 18 0 27 1c25 2 51 10 62 34c2 3 7 15 7 28c0 8 -3 37 -28 51c-13 6 -30 9 -59 9c-8 0 -16 -1 -24 -1h-51v-122zM820 351c0 -43 -9 -140 -84 -229c-95 -112 -221 -125 -272 -125c-78 0 -156 26 -218 73c-46 36 -138 126 -138 284c0 118 52 193 82 228
c36 43 124 127 275 127c113 0 217 -50 286 -143c47 -63 70 -137 69 -215zM788 352c0 35 -5 116 -63 195c-32 43 -114 130 -260 130c-34 0 -115 -5 -192 -62c-43 -31 -133 -115 -133 -262c0 -43 8 -84 24 -123c49 -122 169 -201 301 -201c20 0 60 2 109 19
c130 46 213 168 214 304z" />
    <glyph glyph-name="copyright" unicode="&#xa9;" horiz-adv-x="833" 
d="M820 351c-1 -42 -9 -143 -88 -234c-67 -77 -165 -120 -268 -120c-101 0 -197 42 -265 116c-84 92 -91 197 -91 241c0 118 52 193 82 228c36 43 124 127 275 127c38 0 127 -5 213 -69c46 -35 143 -128 142 -289zM787 352c1 36 -4 117 -64 197c-32 43 -113 128 -258 128
c-34 0 -115 -5 -192 -62c-43 -31 -133 -115 -133 -262c0 -43 8 -84 24 -123c49 -122 169 -201 301 -201c33 0 71 7 103 17c133 44 219 167 219 306zM660 502l-56 -53c-17 19 -58 67 -133 67c-12 0 -39 -1 -68 -14c-59 -27 -90 -85 -90 -148c0 -11 1 -39 14 -69
c25 -57 83 -92 146 -92c73 0 114 46 131 65l56 -49c-69 -83 -147 -91 -190 -91s-74 10 -89 16c-93 35 -147 122 -147 220c0 137 102 238 238 238c56 0 108 -18 151 -53c12 -10 18 -16 37 -37z" />
    <glyph glyph-name="trademark" unicode="&#x2122;" horiz-adv-x="687" 
d="M683 374h-57l2 206c0 22 1 45 3 67c-5 -19 -11 -38 -16 -56l-68 -217h-51l-68 218c-6 18 -11 36 -17 54c3 -22 4 -44 4 -66l3 -206h-57v332h79l83 -262l81 262h79v-332zM229 374h-59v283h-106v49h269v-49h-104v-283z" />
    <glyph glyph-name="plusminus" unicode="&#xb1;" horiz-adv-x="667" 
d="M421 135h-79v242h-254v79h254v242h79v-242h252v-79h-252v-242zM673 0h-585v79h585v-79z" />
    <glyph glyph-name="minus" unicode="&#x2212;" horiz-adv-x="667" 
d="M714 253h-667v79h667v-79z" />
    <glyph glyph-name="mu" unicode="&#xb5;" 
d="M551 140l29 1c8 -22 13 -46 13 -69c0 -12 -2 -83 -68 -83c-38 0 -61 29 -68 39c-14 19 -18 35 -21 44c-48 -73 -111 -87 -146 -87c-40 0 -76 18 -102 48c-9 9 -10 12 -14 18c-2 -31 -7 -101 30 -178c8 -16 18 -30 27 -45s19 -30 19 -48c0 -24 -18 -42 -42 -42
c-12 0 -20 4 -23 6c-13 6 -23 14 -34 39c-17 36 -26 86 -26 172c0 19 0 100 12 170c-4 21 -7 42 -10 63c-9 69 -11 163 -11 177c0 30 2 52 6 64c3 6 15 36 44 35c9 0 21 -2 32 -19c8 -11 12 -25 12 -53c0 -25 -3 -51 -6 -77c-3 -32 -7 -63 -11 -95s-7 -64 -13 -95
c9 -22 14 -30 20 -39c18 -27 46 -45 80 -45c11 0 32 2 53 18c49 35 63 108 65 119c13 70 8 173 8 184c0 40 2 69 12 84c4 6 16 19 36 18c4 0 16 0 25 -7c20 -15 26 -43 26 -91c0 -21 -2 -127 -29 -209c-3 -10 -8 -25 -19 -48c13 -37 34 -51 53 -51c3 0 12 1 20 6
c23 13 23 49 23 54c0 7 -1 14 -2 22z" />
    <glyph glyph-name="brokenbar" unicode="&#xa6;" horiz-adv-x="229" 
d="M122 190h80v-381h-80v381zM122 308v381h80v-381h-80z" />
    <glyph glyph-name="multiply" unicode="&#xd7;" horiz-adv-x="667" 
d="M581 36l-200 200l-202 -200l-55 56l201 200l-201 201l55 56l202 -201l200 201l56 -56l-200 -201l200 -200z" />
    <glyph glyph-name="logicalnot" unicode="&#xac;" horiz-adv-x="667" 
d="M634 253h-587v79h667v-332h-80v253z" />
    <glyph glyph-name="divide" unicode="&#xf7;" horiz-adv-x="667" 
d="M438 145c0 -32 -25 -56 -57 -55c-31 0 -56 24 -56 55c0 32 25 57 57 57s57 -25 56 -57zM438 434c0 -30 -25 -55 -56 -55c-32 1 -57 24 -57 56s25 57 57 57c32 -1 57 -26 56 -58zM714 251h-667v79h667v-79z" />
    <glyph glyph-name="onefitted" unicode="&#xf6dc;" horiz-adv-x="375" 
d="M289 706h75l-149 -706h-96l111 530c-53 -16 -80 -22 -180 -22l14 71c6 0 40 2 67 8c18 4 94 25 137 82c14 17 17 28 21 37z" />
    <glyph glyph-name="Ccedilla" unicode="&#xc7;" horiz-adv-x="688" 
d="M704 489h-102c-1 6 -4 31 -12 51c-21 57 -69 79 -89 86c-26 8 -54 9 -62 9c-33 0 -93 -4 -156 -56c-82 -68 -121 -182 -121 -286c0 -17 -1 -102 45 -160c34 -43 88 -59 141 -59c107 0 162 58 185 93c12 17 19 30 31 67l103 -1c-20 -59 -34 -97 -77 -144
c-9 -11 -31 -34 -63 -55c-33 -21 -93 -50 -186 -50c-21 0 -71 1 -124 23c-155 67 -160 240 -160 283c0 107 39 228 109 311c70 82 167 124 274 124c27 0 56 -3 82 -9c71 -19 129 -64 159 -132c10 -24 15 -45 23 -95zM282 -42h89l-15 -69c-3 -14 -5 -24 -10 -38
c-15 -37 -42 -48 -80 -48h-15l8 36c3 0 13 -1 22 1c20 5 25 21 28 38h-44z" />
    <glyph glyph-name="Eacute" unicode="&#xc9;" 
d="M165 706h443l-18 -90h-345l-42 -202h340l-19 -90h-340l-49 -235h381l-19 -89h-478zM428 898h141l-144 -140h-86z" />
    <glyph glyph-name="Ntilde" unicode="&#xd1;" horiz-adv-x="667" 
d="M265 706l180 -438c9 -22 18 -43 26 -65c9 -24 17 -49 25 -73c3 26 6 52 10 78c3 21 6 41 10 61l90 437h95l-146 -706h-100l-206 498c-4 9 -8 17 -11 26c-6 16 -11 32 -16 48c-3 -30 -7 -61 -12 -91c-3 -21 -8 -42 -12 -63l-86 -418h-95l147 706h101zM585 881l47 -17
c-3 -9 -7 -19 -11 -28c-7 -15 -30 -70 -91 -70c-30 0 -52 11 -105 29c-12 5 -31 11 -44 11c-27 0 -38 -19 -49 -40l-42 19c4 12 25 94 98 93c21 0 49 -6 93 -22c27 -10 40 -17 55 -17c27 0 39 22 49 42z" />
    <glyph glyph-name="aacute" unicode="&#xe1;" horiz-adv-x="521" 
d="M475 373l-52 -246c-1 -5 -3 -13 -3 -26c0 -30 23 -30 33 -31h26l-15 -70h-41c-21 0 -42 1 -58 17c-3 3 -9 9 -12 19c-3 7 -3 9 -5 20c-3 -4 -13 -15 -26 -25c-51 -38 -106 -37 -127 -37c-35 0 -57 5 -71 9c-35 11 -99 46 -99 142c0 41 13 82 42 112c8 9 19 19 42 31
c54 27 106 26 222 35c4 1 21 2 33 11c20 14 26 51 26 74c0 3 1 15 -5 25c-9 17 -36 30 -80 29c-10 0 -77 2 -112 -40c-9 -11 -13 -19 -20 -42h-92c9 25 15 44 29 66c27 42 82 91 196 91c52 0 107 -10 145 -48c27 -28 29 -58 29 -73c0 -17 -2 -27 -5 -43zM362 254
c-18 -4 -37 -7 -55 -10c-17 -2 -35 -4 -53 -6c-45 -3 -63 -4 -84 -14c-43 -20 -49 -60 -49 -78c0 -29 14 -76 86 -76c33 0 74 14 98 37c5 5 9 10 11 12c21 28 31 65 46 135zM360 706h143l-143 -139h-87z" />
    <glyph glyph-name="agrave" unicode="&#xe0;" horiz-adv-x="521" 
d="M475 373l-52 -246c-1 -5 -3 -13 -3 -26c0 -30 23 -30 33 -31h26l-15 -70h-41c-21 0 -42 1 -58 17c-3 3 -9 9 -12 19c-3 7 -3 9 -5 20c-3 -4 -13 -15 -26 -25c-51 -38 -106 -37 -127 -37c-35 0 -57 5 -71 9c-35 11 -99 46 -99 142c0 41 13 82 42 112c8 9 19 19 42 31
c54 27 106 26 222 35c4 1 21 2 33 11c20 14 26 51 26 74c0 3 1 15 -5 25c-9 17 -36 30 -80 29c-10 0 -77 2 -112 -40c-9 -11 -13 -19 -20 -42h-92c9 25 15 44 29 66c27 42 82 91 196 91c52 0 107 -10 145 -48c27 -28 29 -58 29 -73c0 -17 -2 -27 -5 -43zM362 254
c-18 -4 -37 -7 -55 -10c-17 -2 -35 -4 -53 -6c-45 -3 -63 -4 -84 -14c-43 -20 -49 -60 -49 -78c0 -29 14 -76 86 -76c33 0 74 14 98 37c5 5 9 10 11 12c21 28 31 65 46 135zM323 706l89 -139h-85l-145 139h141z" />
    <glyph glyph-name="acircumflex" unicode="&#xe2;" horiz-adv-x="521" 
d="M475 373l-52 -246c-1 -5 -3 -13 -3 -26c0 -30 23 -30 33 -31h26l-15 -70h-41c-21 0 -42 1 -58 17c-3 3 -9 9 -12 19c-3 7 -3 9 -5 20c-3 -4 -13 -15 -26 -25c-51 -38 -106 -37 -127 -37c-35 0 -57 5 -71 9c-35 11 -99 46 -99 142c0 41 13 82 42 112c8 9 19 19 42 31
c54 27 106 26 222 35c4 1 21 2 33 11c20 14 26 51 26 74c0 3 1 15 -5 25c-9 17 -36 30 -80 29c-10 0 -77 2 -112 -40c-9 -11 -13 -19 -20 -42h-92c9 25 15 44 29 66c27 42 82 91 196 91c52 0 107 -10 145 -48c27 -28 29 -58 29 -73c0 -17 -2 -27 -5 -43zM362 254
c-18 -4 -37 -7 -55 -10c-17 -2 -35 -4 -53 -6c-45 -3 -63 -4 -84 -14c-43 -20 -49 -60 -49 -78c0 -29 14 -76 86 -76c33 0 74 14 98 37c5 5 9 10 11 12c21 28 31 65 46 135zM411 706l64 -140h-82l-42 97l-80 -97h-101l128 140h113z" />
    <glyph glyph-name="atilde" unicode="&#xe3;" horiz-adv-x="521" 
d="M475 373l-52 -246c-1 -5 -3 -13 -3 -26c0 -30 23 -30 33 -31h26l-15 -70h-41c-21 0 -42 1 -58 17c-3 3 -9 9 -12 19c-3 7 -3 9 -5 20c-3 -4 -13 -15 -26 -25c-51 -38 -106 -37 -127 -37c-35 0 -57 5 -71 9c-35 11 -99 46 -99 142c0 41 13 82 42 112c8 9 19 19 42 31
c54 27 106 26 222 35c4 1 21 2 33 11c20 14 26 51 26 74c0 3 1 15 -5 25c-9 17 -36 30 -80 29c-10 0 -77 2 -112 -40c-9 -11 -13 -19 -20 -42h-92c9 25 15 44 29 66c27 42 82 91 196 91c52 0 107 -10 145 -48c27 -28 29 -58 29 -73c0 -17 -2 -27 -5 -43zM362 254
c-18 -4 -37 -7 -55 -10c-17 -2 -35 -4 -53 -6c-45 -3 -63 -4 -84 -14c-43 -20 -49 -60 -49 -78c0 -29 14 -76 86 -76c33 0 74 14 98 37c5 5 9 10 11 12c21 28 31 65 46 135zM466 696l47 -17c-3 -10 -7 -19 -12 -29c-6 -15 -29 -70 -90 -70c-30 0 -52 12 -105 30
c-12 4 -31 11 -44 11c-27 0 -38 -20 -49 -41l-43 20c4 12 26 93 99 93c20 0 49 -6 92 -22c28 -11 41 -18 56 -18c27 1 39 22 49 43z" />
    <glyph glyph-name="ccedilla" unicode="&#xe7;" horiz-adv-x="500" 
d="M512 354h-92c-1 15 -2 31 -7 44c-16 37 -57 57 -96 57c-16 0 -46 -4 -79 -26c-68 -47 -101 -146 -101 -225c0 -29 5 -50 9 -60c7 -19 34 -76 102 -76c46 0 89 24 117 60c14 18 19 32 24 41h94c-9 -25 -27 -82 -83 -130c-45 -38 -94 -54 -152 -54c-22 0 -86 2 -140 45
c-69 56 -70 141 -70 168c0 63 19 139 49 194c21 38 89 145 228 145c70 0 147 -29 179 -97c15 -33 17 -78 18 -86zM188 -42h89l-14 -69c-3 -14 -5 -24 -11 -38c-15 -37 -42 -48 -80 -48h-15l8 36c3 0 14 -1 23 1c20 5 24 21 27 38h-44z" />
    <glyph glyph-name="eacute" unicode="&#xe9;" horiz-adv-x="542" 
d="M510 237h-377c0 -9 0 -18 -1 -27c0 -13 -3 -81 45 -117c29 -22 63 -23 75 -23c17 0 67 4 105 42c10 10 14 17 28 38h101c-19 -36 -39 -72 -67 -99c-47 -46 -108 -65 -172 -65c-54 0 -103 13 -143 51c-32 29 -65 77 -65 173c0 39 6 155 90 246c68 74 140 82 180 82
c22 0 96 -4 148 -51c59 -53 63 -140 63 -163c0 -35 -9 -81 -10 -87zM150 309l275 1c1 11 9 71 -24 111c-20 25 -57 36 -90 36c-14 0 -40 -2 -71 -19c-66 -37 -83 -108 -90 -129zM370 706h143l-143 -139h-87z" />
    <glyph glyph-name="egrave" unicode="&#xe8;" horiz-adv-x="542" 
d="M510 237h-377c0 -9 0 -18 -1 -27c0 -13 -3 -81 45 -117c29 -22 63 -23 75 -23c17 0 67 4 105 42c10 10 14 17 28 38h101c-19 -36 -39 -72 -67 -99c-47 -46 -108 -65 -172 -65c-54 0 -103 13 -143 51c-32 29 -65 77 -65 173c0 39 6 155 90 246c68 74 140 82 180 82
c22 0 96 -4 148 -51c59 -53 63 -140 63 -163c0 -35 -9 -81 -10 -87zM150 309l275 1c1 11 9 71 -24 111c-20 25 -57 36 -90 36c-14 0 -40 -2 -71 -19c-66 -37 -83 -108 -90 -129zM334 706l89 -139h-86l-144 139h141z" />
    <glyph glyph-name="ecircumflex" unicode="&#xea;" horiz-adv-x="542" 
d="M510 237h-377c0 -9 0 -18 -1 -27c0 -13 -3 -81 45 -117c29 -22 63 -23 75 -23c17 0 67 4 105 42c10 10 14 17 28 38h101c-19 -36 -39 -72 -67 -99c-47 -46 -108 -65 -172 -65c-54 0 -103 13 -143 51c-32 29 -65 77 -65 173c0 39 6 155 90 246c68 74 140 82 180 82
c22 0 96 -4 148 -51c59 -53 63 -140 63 -163c0 -35 -9 -81 -10 -87zM150 309l275 1c1 11 9 71 -24 111c-20 25 -57 36 -90 36c-14 0 -40 -2 -71 -19c-66 -37 -83 -108 -90 -129zM421 706l64 -140h-82l-42 97l-80 -97h-100l127 140h113z" />
    <glyph glyph-name="edieresis" unicode="&#xeb;" horiz-adv-x="542" 
d="M510 237h-377c0 -9 0 -18 -1 -27c0 -13 -3 -81 45 -117c29 -22 63 -23 75 -23c17 0 67 4 105 42c10 10 14 17 28 38h101c-19 -36 -39 -72 -67 -99c-47 -46 -108 -65 -172 -65c-54 0 -103 13 -143 51c-32 29 -65 77 -65 173c0 39 6 155 90 246c68 74 140 82 180 82
c22 0 96 -4 148 -51c59 -53 63 -140 63 -163c0 -35 -9 -81 -10 -87zM150 309l275 1c1 11 9 71 -24 111c-20 25 -57 36 -90 36c-14 0 -40 -2 -71 -19c-66 -37 -83 -108 -90 -129zM226 686h94l-22 -105h-95zM406 686h94l-22 -105h-95z" />
    <glyph glyph-name="iacute" unicode="&#xed;" horiz-adv-x="229" 
d="M126 521h97l-110 -521h-96zM214 706h143l-143 -139h-87z" />
    <glyph glyph-name="igrave" unicode="&#xec;" horiz-adv-x="229" 
d="M126 521h97l-110 -521h-96zM178 706l88 -139h-85l-144 139h141z" />
    <glyph glyph-name="icircumflex" unicode="&#xee;" horiz-adv-x="229" 
d="M126 521h97l-110 -521h-96zM265 706l64 -140h-82l-42 97l-80 -97h-100l127 140h113z" />
    <glyph glyph-name="idieresis" unicode="&#xef;" horiz-adv-x="229" 
d="M126 521h97l-110 -521h-96zM69 686h95l-22 -105h-95zM249 686h95l-22 -105h-95z" />
    <glyph glyph-name="ntilde" unicode="&#xf1;" horiz-adv-x="542" 
d="M425 0h-96l72 339c5 26 8 36 8 50c-1 21 -8 63 -66 63c-15 -1 -43 -5 -76 -26c-82 -52 -94 -139 -100 -169l-55 -257h-96l111 521h91l-15 -74c19 22 71 85 165 85c36 0 138 -12 138 -127c0 -21 -1 -30 -9 -67zM477 696l47 -17c-4 -10 -8 -19 -12 -29
c-7 -15 -29 -70 -91 -70c-29 0 -52 12 -105 30c-12 4 -30 11 -44 11c-26 0 -38 -20 -48 -41l-43 20c4 12 25 93 98 93c21 0 50 -6 93 -22c28 -11 41 -18 55 -18c27 1 39 22 50 43z" />
    <glyph glyph-name="oacute" unicode="&#xf3;" 
d="M331 536c30 -1 61 -8 89 -20c112 -50 116 -169 116 -204c0 -17 -1 -52 -13 -94c-25 -90 -88 -181 -178 -215c-41 -16 -78 -17 -95 -17c-39 0 -68 8 -82 14c-53 20 -127 77 -127 213c0 34 4 114 55 192c25 39 98 136 235 131zM317 452c-38 0 -67 -17 -78 -23
c-69 -44 -103 -135 -103 -214c0 -29 5 -50 9 -60c17 -54 59 -86 115 -86c117 0 181 141 181 239c0 54 -18 87 -32 105c-31 36 -77 39 -92 39zM381 706h143l-143 -139h-87z" />
    <glyph glyph-name="ograve" unicode="&#xf2;" 
d="M331 536c30 -1 61 -8 89 -20c112 -50 116 -169 116 -204c0 -17 -1 -52 -13 -94c-25 -90 -88 -181 -178 -215c-41 -16 -78 -17 -95 -17c-39 0 -68 8 -82 14c-53 20 -127 77 -127 213c0 34 4 114 55 192c25 39 98 136 235 131zM317 452c-38 0 -67 -17 -78 -23
c-69 -44 -103 -135 -103 -214c0 -29 5 -50 9 -60c17 -54 59 -86 115 -86c117 0 181 141 181 239c0 54 -18 87 -32 105c-31 36 -77 39 -92 39zM344 706l89 -139h-86l-144 139h141z" />
    <glyph glyph-name="ocircumflex" unicode="&#xf4;" 
d="M331 536c30 -1 61 -8 89 -20c112 -50 116 -169 116 -204c0 -17 -1 -52 -13 -94c-25 -90 -88 -181 -178 -215c-41 -16 -78 -17 -95 -17c-39 0 -68 8 -82 14c-53 20 -127 77 -127 213c0 34 4 114 55 192c25 39 98 136 235 131zM317 452c-38 0 -67 -17 -78 -23
c-69 -44 -103 -135 -103 -214c0 -29 5 -50 9 -60c17 -54 59 -86 115 -86c117 0 181 141 181 239c0 54 -18 87 -32 105c-31 36 -77 39 -92 39zM431 706l65 -140h-83l-41 97l-80 -97h-101l127 140h113z" />
    <glyph glyph-name="otilde" unicode="&#xf5;" 
d="M331 536c30 -1 61 -8 89 -20c112 -50 116 -169 116 -204c0 -17 -1 -52 -13 -94c-25 -90 -88 -181 -178 -215c-41 -16 -78 -17 -95 -17c-39 0 -68 8 -82 14c-53 20 -127 77 -127 213c0 34 4 114 55 192c25 39 98 136 235 131zM317 452c-38 0 -67 -17 -78 -23
c-69 -44 -103 -135 -103 -214c0 -29 5 -50 9 -60c17 -54 59 -86 115 -86c117 0 181 141 181 239c0 54 -18 87 -32 105c-31 36 -77 39 -92 39zM487 696l47 -17c-4 -10 -8 -19 -12 -29c-6 -15 -29 -70 -91 -70c-29 0 -51 12 -104 30c-12 4 -31 11 -45 11
c-26 0 -37 -20 -48 -41l-43 20c4 12 25 93 99 93c20 0 49 -6 92 -22c28 -11 41 -18 56 -18c26 1 39 22 49 43z" />
    <glyph glyph-name="uacute" unicode="&#xfa;" horiz-adv-x="542" 
d="M126 521h97l-70 -328c-5 -29 -8 -46 -8 -59s0 -49 36 -62c5 -2 17 -5 30 -5c30 1 73 16 118 66c40 45 53 90 66 147l50 241h92l-109 -521h-87l18 92c-3 -5 -18 -26 -33 -42c-20 -20 -67 -60 -142 -60c-51 0 -105 21 -126 71c-10 23 -10 51 -10 58c0 32 5 53 11 84z
M370 706h143l-143 -139h-87z" />
    <glyph glyph-name="ugrave" unicode="&#xf9;" horiz-adv-x="542" 
d="M126 521h97l-70 -328c-5 -29 -8 -46 -8 -59s0 -49 36 -62c5 -2 17 -5 30 -5c30 1 73 16 118 66c40 45 53 90 66 147l50 241h92l-109 -521h-87l18 92c-3 -5 -18 -26 -33 -42c-20 -20 -67 -60 -142 -60c-51 0 -105 21 -126 71c-10 23 -10 51 -10 58c0 32 5 53 11 84z
M334 706l89 -139h-86l-144 139h141z" />
    <glyph glyph-name="ucircumflex" unicode="&#xfb;" horiz-adv-x="542" 
d="M126 521h97l-70 -328c-5 -29 -8 -46 -8 -59s0 -49 36 -62c5 -2 17 -5 30 -5c30 1 73 16 118 66c40 45 53 90 66 147l50 241h92l-109 -521h-87l18 92c-3 -5 -18 -26 -33 -42c-20 -20 -67 -60 -142 -60c-51 0 -105 21 -126 71c-10 23 -10 51 -10 58c0 32 5 53 11 84z
M421 706l64 -140h-82l-42 97l-80 -97h-100l127 140h113z" />
    <glyph glyph-name="Agrave" unicode="&#xc0;" horiz-adv-x="646" 
d="M368 706h114l115 -706h-97l-29 198h-273l-103 -198h-109zM398 585l-157 -306h217l-49 338c-3 -15 -4 -18 -11 -32zM432 898l89 -140h-85l-145 140h141z" />
    <glyph glyph-name="Atilde" unicode="&#xc3;" horiz-adv-x="646" 
d="M368 706h114l115 -706h-97l-29 198h-273l-103 -198h-109zM398 585l-157 -306h217l-49 338c-3 -15 -4 -18 -11 -32zM575 881l47 -17c-4 -9 -8 -19 -12 -28c-6 -15 -29 -70 -91 -70c-29 0 -51 11 -104 29c-13 5 -31 11 -45 11c-26 0 -37 -19 -48 -40l-43 19
c4 12 25 94 98 93c21 0 50 -6 93 -22c28 -10 41 -17 56 -17c26 0 38 22 49 42z" />
    <glyph glyph-name="Otilde" unicode="&#xd5;" horiz-adv-x="729" 
d="M446 725c33 0 128 -4 200 -79c78 -81 78 -191 78 -225c0 -57 -9 -197 -121 -319c-70 -77 -155 -119 -260 -119c-20 0 -69 2 -120 23c-117 51 -164 171 -164 292c0 94 28 189 82 267c36 52 129 162 305 160zM442 640c-47 1 -89 -11 -129 -36c-105 -65 -154 -199 -154 -317
c0 -23 -1 -88 41 -145c19 -27 63 -73 147 -73c55 0 157 19 223 141c17 32 53 107 53 206c0 134 -66 196 -122 215c-18 6 -40 9 -59 9zM617 881l47 -17c-4 -9 -8 -19 -12 -28c-7 -15 -29 -70 -91 -70c-29 0 -52 11 -105 29c-12 5 -31 11 -44 11c-26 0 -38 -19 -48 -40l-43 19
c4 12 25 94 98 93c21 0 50 -6 93 -22c28 -10 41 -17 55 -17c27 0 39 22 50 42z" />
    <glyph glyph-name="ydieresis" unicode="&#xff;" horiz-adv-x="458" 
d="M61 521h100l44 -291c3 -24 6 -48 8 -72c1 -22 2 -43 2 -64c11 26 21 52 32 78c8 16 15 32 23 49l147 300h105l-309 -598c-14 -27 -22 -40 -31 -51c-31 -41 -67 -46 -114 -49h-71l18 88h43c15 1 22 2 29 4c24 7 32 22 43 42l22 46zM184 686h94l-22 -105h-95zM364 686h94
l-22 -105h-95z" />
    <glyph glyph-name="Ydieresis" unicode="&#x178;" horiz-adv-x="583" 
d="M98 706h116l114 -347l228 347h125l-321 -450l-53 -256h-104l57 272zM569 877l-22 -104h-97l23 104h96zM389 877l-23 -104h-96l22 104h97z" />
    <glyph glyph-name="Acircumflex" unicode="&#xc2;" horiz-adv-x="646" 
d="M368 706h114l115 -706h-97l-29 198h-273l-103 -198h-109zM398 585l-157 -306h217l-49 338c-3 -15 -4 -18 -11 -32zM521 898l65 -141h-83l-41 98l-80 -98h-101l127 141h113z" />
    <glyph glyph-name="Ecircumflex" unicode="&#xca;" 
d="M165 706h443l-18 -90h-345l-42 -202h340l-19 -90h-340l-49 -235h381l-19 -89h-478zM480 898l64 -141h-82l-42 98l-80 -98h-101l128 141h113z" />
    <glyph glyph-name="Aacute" unicode="&#xc1;" horiz-adv-x="646" 
d="M368 706h114l115 -706h-97l-29 198h-273l-103 -198h-109zM398 585l-157 -306h217l-49 338c-3 -15 -4 -18 -11 -32zM470 898h141l-145 -140h-85z" />
    <glyph glyph-name="Edieresis" unicode="&#xcb;" 
d="M165 706h443l-18 -90h-345l-42 -202h340l-19 -90h-340l-49 -235h381l-19 -89h-478zM559 877l-23 -104h-96l22 104h97zM378 877l-22 -104h-97l23 104h96z" />
    <glyph glyph-name="Egrave" unicode="&#xc8;" 
d="M165 706h443l-18 -90h-345l-42 -202h340l-19 -90h-340l-49 -235h381l-19 -89h-478zM391 898l89 -140h-86l-144 140h141z" />
    <glyph glyph-name="Iacute" unicode="&#xcd;" horiz-adv-x="229" 
d="M165 706h103l-147 -706h-104zM261 898h141l-144 -140h-86z" />
    <glyph glyph-name="Icircumflex" unicode="&#xce;" horiz-adv-x="229" 
d="M165 706h103l-147 -706h-104zM313 898l64 -141h-82l-42 98l-80 -98h-100l127 141h113z" />
    <glyph glyph-name="Idieresis" unicode="&#xcf;" horiz-adv-x="229" 
d="M165 706h103l-147 -706h-104zM392 877l-22 -104h-97l23 104h96zM212 877l-23 -104h-96l22 104h97z" />
    <glyph glyph-name="Igrave" unicode="&#xcc;" horiz-adv-x="229" 
d="M165 706h103l-147 -706h-104zM224 898l89 -140h-86l-144 140h141z" />
    <glyph glyph-name="Oacute" unicode="&#xd3;" horiz-adv-x="729" 
d="M446 725c33 0 128 -4 200 -79c78 -81 78 -191 78 -225c0 -57 -9 -197 -121 -319c-70 -77 -155 -119 -260 -119c-20 0 -69 2 -120 23c-117 51 -164 171 -164 292c0 94 28 189 82 267c36 52 129 162 305 160zM442 640c-47 1 -89 -11 -129 -36c-105 -65 -154 -199 -154 -317
c0 -23 -1 -88 41 -145c19 -27 63 -73 147 -73c55 0 157 19 223 141c17 32 53 107 53 206c0 134 -66 196 -122 215c-18 6 -40 9 -59 9zM511 898h141l-144 -140h-86z" />
    <glyph glyph-name="Ocircumflex" unicode="&#xd4;" horiz-adv-x="729" 
d="M446 725c33 0 128 -4 200 -79c78 -81 78 -191 78 -225c0 -57 -9 -197 -121 -319c-70 -77 -155 -119 -260 -119c-20 0 -69 2 -120 23c-117 51 -164 171 -164 292c0 94 28 189 82 267c36 52 129 162 305 160zM442 640c-47 1 -89 -11 -129 -36c-105 -65 -154 -199 -154 -317
c0 -23 -1 -88 41 -145c19 -27 63 -73 147 -73c55 0 157 19 223 141c17 32 53 107 53 206c0 134 -66 196 -122 215c-18 6 -40 9 -59 9zM563 898l64 -141h-82l-42 98l-80 -98h-100l127 141h113z" />
    <glyph glyph-name="Ograve" unicode="&#xd2;" horiz-adv-x="729" 
d="M446 725c33 0 128 -4 200 -79c78 -81 78 -191 78 -225c0 -57 -9 -197 -121 -319c-70 -77 -155 -119 -260 -119c-20 0 -69 2 -120 23c-117 51 -164 171 -164 292c0 94 28 189 82 267c36 52 129 162 305 160zM442 640c-47 1 -89 -11 -129 -36c-105 -65 -154 -199 -154 -317
c0 -23 -1 -88 41 -145c19 -27 63 -73 147 -73c55 0 157 19 223 141c17 32 53 107 53 206c0 134 -66 196 -122 215c-18 6 -40 9 -59 9zM474 898l89 -140h-86l-144 140h141z" />
    <glyph glyph-name="Uacute" unicode="&#xda;" horiz-adv-x="646" 
d="M159 706h101l-95 -453c-4 -20 -7 -38 -7 -59c0 -14 1 -44 26 -73c29 -33 79 -47 124 -47c31 0 53 6 64 10c24 10 67 34 95 95c8 18 12 31 20 67l96 460h101l-89 -425c-10 -51 -21 -103 -45 -149c-50 -97 -148 -144 -255 -144c-18 0 -53 0 -97 14c-42 13 -141 56 -141 185
c0 46 18 120 19 124zM470 898h141l-145 -140h-85z" />
    <glyph glyph-name="Ucircumflex" unicode="&#xdb;" horiz-adv-x="646" 
d="M159 706h101l-95 -453c-4 -20 -7 -38 -7 -59c0 -14 1 -44 26 -73c29 -33 79 -47 124 -47c31 0 53 6 64 10c24 10 67 34 95 95c8 18 12 31 20 67l96 460h101l-89 -425c-10 -51 -21 -103 -45 -149c-50 -97 -148 -144 -255 -144c-18 0 -53 0 -97 14c-42 13 -141 56 -141 185
c0 46 18 120 19 124zM521 898l65 -141h-83l-41 98l-80 -98h-101l127 141h113z" />
    <glyph glyph-name="Ugrave" unicode="&#xd9;" horiz-adv-x="646" 
d="M159 706h101l-95 -453c-4 -20 -7 -38 -7 -59c0 -14 1 -44 26 -73c29 -33 79 -47 124 -47c31 0 53 6 64 10c24 10 67 34 95 95c8 18 12 31 20 67l96 460h101l-89 -425c-10 -51 -21 -103 -45 -149c-50 -97 -148 -144 -255 -144c-18 0 -53 0 -97 14c-42 13 -141 56 -141 185
c0 46 18 120 19 124zM432 898l89 -140h-85l-145 140h141z" />
    </font>
</defs>
</svg>
